<svg xmlns="http://www.w3.org/2000/svg" width="29.2178" height="32" viewBox="0 0 29.2178 32"><title>attachment</title><g id="Layer_2" data-name="Layer 2"><g id="Layer_1-2" data-name="Layer 1"><path d="M24.9244,15.1822,11.6267,28.3378a5.6317,5.6317,0,1,1-7.9644-7.9644L19.9467,3.2711a4.1991,4.1991,0,0,1,2.9867-1.2444A4.1393,4.1393,0,0,1,25.92,3.2711a4.2277,4.2277,0,0,1,0,6.0089L11.2711,23.7867a2.2128,2.2128,0,0,1-1.5289.64,2.1254,2.1254,0,0,1-1.5289-.64,2.2128,2.2128,0,0,1-.64-1.5289,2.1254,2.1254,0,0,1,.64-1.5289l11.2-11.0578-.8622-.8622-.56-.56-11.2,11.0578a4.1735,4.1735,0,0,0,5.9022,5.9022L27.3778,10.7022a6.2448,6.2448,0,0,0,0-8.8533A6.1074,6.1074,0,0,0,22.9689,0a6.2462,6.2462,0,0,0-4.4444,1.8489L2.24,18.9511A7.643,7.643,0,1,0,13.0489,29.76L26.3467,16.6044l-.8886-.8886Z" fill="#1a2026"/><circle cx="18.7097" cy="8.9622" r="1" fill="#1a2026"/><circle cx="25.5847" cy="15.9622" r="1" fill="#1a2026"/></g></g></svg>