<?xml version="1.0" encoding="UTF-8"?>
<svg width="324px" height="216px" viewBox="0 0 324 216" version="1.1" xmlns="http://www.w3.org/2000/svg" xmlns:xlink="http://www.w3.org/1999/xlink">
    <!-- Generator: Sketch 55.2 (78181) - https://sketchapp.com -->
    <title>Base Map Layers</title>
    
    <g id="Page-1" stroke="none" stroke-width="1" fill="none" fill-rule="evenodd">
        <g id="Group" transform="translate(-7.912734, 0.253538)">
            <g id="Stacked" transform="translate(17.912734, 105.746462)" stroke="#333333" stroke-linecap="round" stroke-linejoin="round" stroke-width="20">
                <polyline id="Path" points="304 46 152 100 0 46"></polyline>
                <polyline id="Path" points="304 0 152 54 0 0"></polyline>
            </g>
            <path d="M319.625256,68.1279435 L173.092773,120.227537 C171.359237,120.843896 169.466231,120.843896 167.732695,120.227537 L21.2002127,68.1279435 C17.0372387,66.647799 14.8623757,62.0731475 16.3425203,57.9101735 C17.1487076,55.6427349 18.9327741,53.8586684 21.2002127,53.0524811 L167.732695,0.952887231 C169.466231,0.336528876 171.359237,0.336528876 173.092773,0.952887231 L319.625256,53.0524811 C323.78823,54.5326256 325.963093,59.1072771 324.482948,63.2702511 C323.676761,65.5376898 321.892694,67.3217562 319.625256,68.1279435 Z" id="Top" fill="#333333"></path>
        </g>
    </g>
</svg>