<svg width="22" height="18" viewBox="0 0 22 18" fill="currentColor" xmlns="http://www.w3.org/2000/svg">
  <circle cx="2" cy="2" r="2" fill="currentColor"/>
  <circle cx="2" cy="9" r="2" fill="currentColor"/>
  <circle cx="2" cy="16" r="2" fill="currentColor"/>
  <path d="M7.70319 0.083909C7.75063 0.0305369 7.81863 0 7.89004 0H21.75C21.8881 0 22 0.111929 22 0.25V3.75C22 3.88807 21.8881 4 21.75 4H7.89004C7.81863 4 7.75063 3.96946 7.70319 3.91609L6.14764 2.16609C6.06344 2.07137 6.06344 1.92863 6.14764 1.83391L7.70319 0.083909Z" fill="currentColor"/>
  <path d="M7.70319 7.08391C7.75063 7.03054 7.81863 7 7.89004 7H21.75C21.8881 7 22 7.11193 22 7.25V10.75C22 10.8881 21.8881 11 21.75 11H7.89004C7.81863 11 7.75063 10.9695 7.70319 10.9161L6.14764 9.16609C6.06344 9.07137 6.06344 8.92863 6.14764 8.83391L7.70319 7.08391Z" fill="currentColor"/>
  <path d="M7.70319 14.0839C7.75063 14.0305 7.81863 14 7.89004 14H21.75C21.8881 14 22 14.1119 22 14.25V17.75C22 17.8881 21.8881 18 21.75 18H7.89004C7.81863 18 7.75063 17.9695 7.70319 17.9161L6.14764 16.1661C6.06344 16.0714 6.06344 15.9286 6.14764 15.8339L7.70319 14.0839Z" fill="currentColor"/>
</svg>
