<svg width="7" height="10" viewBox="0 0 7 10" fill="none" xmlns="http://www.w3.org/2000/svg">
<mask id="path-1-inside-1_591_6852" fill="white">
<path d="M1.99816 0L6.99816 5L1.99816 10L0.9375 8.93934L4.87684 5L0.9375 1.06066L1.99816 0Z"/>
</mask>
<path d="M1.99816 0L6.99816 5L1.99816 10L0.9375 8.93934L4.87684 5L0.9375 1.06066L1.99816 0Z" fill="white"/>
<path d="M6.99816 5L8.05882 6.06066L9.11948 5L8.05882 3.93934L6.99816 5ZM1.99816 0L3.05882 -1.06066L1.99816 -2.12132L0.9375 -1.06066L1.99816 0ZM1.99816 10L0.9375 11.0607L1.99816 12.1213L3.05882 11.0607L1.99816 10ZM0.9375 1.06066L-0.12316 -1.67164e-07L-1.18382 1.06066L-0.12316 2.12132L0.9375 1.06066ZM0.9375 8.93934L-0.12316 7.87868L-1.18382 8.93934L-0.12316 10L0.9375 8.93934ZM4.87684 5L5.9375 6.06066L6.99816 5L5.9375 3.93934L4.87684 5ZM8.05882 3.93934L3.05882 -1.06066L0.9375 1.06066L5.9375 6.06066L8.05882 3.93934ZM3.05882 11.0607L8.05882 6.06066L5.9375 3.93934L0.9375 8.93934L3.05882 11.0607ZM0.9375 -1.06066L-0.12316 -1.67164e-07L1.99816 2.12132L3.05882 1.06066L0.9375 -1.06066ZM-0.12316 10L0.9375 11.0607L3.05882 8.93934L1.99816 7.87868L-0.12316 10ZM3.81618 3.93934L-0.12316 7.87868L1.99816 10L5.9375 6.06066L3.81618 3.93934ZM-0.12316 2.12132L3.81618 6.06066L5.9375 3.93934L1.99816 -1.58579e-08L-0.12316 2.12132Z" fill="black" fill-opacity="0.25" mask="url(#path-1-inside-1_591_6852)"/>
</svg>
