<svg xmlns="http://www.w3.org/2000/svg" width="16" height="16" viewBox="0 0 28 28">
  <title>Clear Icon</title>
  <g id="Layer_2" data-name="Layer 2">
    <g id="Layer_1-2" data-name="Layer 1">
      <g>
        <path d="M14,0A14,14,0,1,0,28,14,14,14,0,0,0,14,0Zm0,26A12,12,0,1,1,26,14,12,12,0,0,1,14,26Z"/>
        <path d="M18.5,20.2l-.3-.2L14,15.8,9.8,20l-.3.2h0L9.1,20,8,18.9a.5.5,0,0,1,0-.7L12.2,14,8,9.8a.5.5,0,0,1,0-.7L9.1,8a.5.5,0,0,1,.7,0L14,12.2,18.2,8l.3-.2h0a.5.5,0,0,1,.4.2L20,9.1a.5.5,0,0,1,0,.7L15.8,14,20,18.2a.5.5,0,0,1,0,.7L18.9,20Z"/>
      </g>
    </g>
  </g>
</svg>
