<svg xmlns="http://www.w3.org/2000/svg" width="22.5" height="19.5" viewBox="0 0 22.5 19.5"><title>cluster-field_reports-outline</title><g id="Layer_2" data-name="Layer 2"><g id="Layer_1-2" data-name="Layer 1"><g opacity="0.8"><path d="M8.25,18.875A7.625,7.625,0,0,1,7.4883,3.6631l-.001-.0049a.6253.6253,0,0,1,.3242-.708,7.56,7.56,0,0,1,2.6768-.7871l-.001-.0049a.6253.6253,0,0,1,.3242-.708A7.5439,7.5439,0,0,1,14.25.625a7.62,7.62,0,0,1,3.37,14.457.6244.6244,0,0,1-.7607-.166A7.6982,7.6982,0,0,1,14.62,16.582a.6247.6247,0,0,1-.7617-.167l-.002-.002A7.6074,7.6074,0,0,1,8.25,18.875ZM11.5654,4.3838a7.6305,7.6305,0,0,1,4.1689,8.3281,5.3743,5.3743,0,0,0-4.1689-8.3281Zm3-1.5a7.64,7.64,0,0,1,4.1709,8.3252,5.3743,5.3743,0,0,0-4.1709-8.3252Z" fill="#fff"/><path d="M14.25,1.25a6.9956,6.9956,0,0,1,3.0939,13.272,7.738,7.738,0,0,0,1.146-2.0308A5.98,5.98,0,0,0,13.4184,2.3145,7.72,7.72,0,0,0,11.25,2c-.0527,0-.1037.0068-.1561.0079A6.96,6.96,0,0,1,14.25,1.25m-3,1.5a6.9956,6.9956,0,0,1,3.0939,13.272,7.738,7.738,0,0,0,1.146-2.0308A5.98,5.98,0,0,0,10.4184,3.8145,7.72,7.72,0,0,0,8.25,3.5c-.0527,0-.1037.0068-.1561.0079A6.96,6.96,0,0,1,11.25,2.75m-3,1.5a7,7,0,1,1-7,7,7,7,0,0,1,7-7m6-4.25a8.16,8.16,0,0,0-3.7211.8929,1.2489,1.2489,0,0,0-.62.7163,8.2046,8.2046,0,0,0-2.38.7837,1.2488,1.2488,0,0,0-.62.7159,8.25,8.25,0,1,0,7.0413,14.1,1.249,1.249,0,0,0,.9473-.0659A8.354,8.354,0,0,0,16.9542,15.71a1.2489,1.2489,0,0,0,.9436-.0671A8.2456,8.2456,0,0,0,14.25,0Z" fill="#fff"/></g><path d="M21.25,8.25A6.99,6.99,0,0,0,11.0939,2.0079C11.1463,2.0068,11.1973,2,11.25,2a7.72,7.72,0,0,1,2.1684.3145A5.9932,5.9932,0,0,1,18.49,12.4912a7.738,7.738,0,0,1-1.146,2.0308A6.9933,6.9933,0,0,0,21.25,8.25Z" fill="#1a2026"/><path d="M18.25,9.75A6.99,6.99,0,0,0,8.0939,3.5079C8.1463,3.5068,8.1973,3.5,8.25,3.5a7.72,7.72,0,0,1,2.1684.3145A5.9932,5.9932,0,0,1,15.49,13.9912a7.738,7.738,0,0,1-1.146,2.0308A6.9933,6.9933,0,0,0,18.25,9.75Z" fill="#1a2026"/><circle cx="8.25" cy="11.25" r="7" fill="#1a2026"/></g></g></svg>