<svg xmlns="http://www.w3.org/2000/svg" viewBox="0 0 578 108"><defs><style>.a{fill:#333;}.b{fill:#008586;}</style></defs><path class="a" d="M102,84.4V16.9h29.5v9.9H113.2V45.3h15.4v9.8H113.2V74.5h18.6v9.9Z"/><path class="a" d="M163.1,69.3H150.8l-2.4,15.1H137.6l12.5-67.5h14.1l12.7,67.5H165.5Zm-1.4-9.2-4.7-30-4.8,30Z"/><path class="a" d="M209.7,84.4l-8.5-26.9h-5.6V84.4H184.4V16.9h17.4c10.2,0,17,4.1,17,14.3v12c0,6.5-2.7,10.5-7.3,12.6l9.6,28.6ZM195.6,47.9h5.8c3.7,0,6.2-1.4,6.2-6.2V32.9c0-4.8-2.5-6.1-6.2-6.1h-5.8Z"/><path class="a" d="M259,26.8H247.8V84.4H236.6V26.8H225.3V16.9H259Z"/><path class="a" d="M277.9,16.9V45.1h12.8V16.9h11.2V84.4H290.7V55.1H277.9V84.4H266.7V16.9Z"/><path class="a" d="M338.7,84.4l-8.5-26.9h-5.6V84.4H313.4V16.9h17.4c10.2,0,17,4.1,17,14.3v12c0,6.5-2.7,10.5-7.3,12.6l9.6,28.6ZM324.6,47.9h5.9c3.6,0,6.1-1.4,6.1-6.2V32.9c0-4.8-2.5-6.1-6.1-6.1h-5.9Z"/><path class="a" d="M380.2,69.3H367.9l-2.4,15.1H354.7l12.5-67.5h14.1L394,84.4H382.6Zm-1.4-9.2-4.7-30-4.7,30Z"/><path class="a" d="M401.5,84.4V16.9h11.2l14.1,41.7V16.9H437V84.4H426.4L411.7,40.5V84.4Z"/><path class="a" d="M482.9,70.9c0,10.4-6.8,14.2-17,14.2h-.7c-10.3,0-17-3.7-17-14.2V30.4c0-10,6.7-14.2,17-14.2h.7c10.2,0,17,4.2,17,14.2v9.7H471.7V32.2c0-4.9-2.5-6.2-6.2-6.2s-6.1,1.3-6.1,6.2V69.1c0,4.9,2.5,6.2,6.1,6.2s6.2-1.3,6.2-6.2v-10h-6.5V49.7h17.7Z"/><path class="a" d="M493.8,84.4V16.9h29.6v9.9H505V45.3h15.4v9.8H505V74.5h18.7v9.9Z"/><path class="a" d="M558.8,84.4l-8.5-26.9h-5.6V84.4H533.5V16.9h17.4c10.2,0,17,4.1,17,14.3v12c0,6.5-2.7,10.5-7.3,12.6l9.6,28.6ZM544.7,47.9h5.9c3.6,0,6.1-1.4,6.1-6.2V32.9c0-4.8-2.5-6.1-6.1-6.1h-5.9Z"/><path class="b" d="M76.6,68.1V70c0,6.2-1.2,13.3-9.8,18.4L42.2,103.9,16.6,88.4C7.7,82.9,7.7,73.5,7.7,70V68.2Z"/><polygon class="b" points="42.2 3.9 6.1 9.8 7.7 30.5 76.6 30.5 78.3 9.8 42.2 3.9"/><polygon class="b" points="68.4 36 7.7 36.1 7.7 61.8 68.4 61.8 68.4 36"/></svg>