<svg xmlns="http://www.w3.org/2000/svg" width="26.6472" height="35.5452" viewBox="0 0 26.6472 35.5452"><title>field_report</title><g id="Layer_2" data-name="Layer 2"><g id="Layer_1-2" data-name="Layer 1"><path d="M25.907,0H.74A.74.74,0,0,0,0,.74V34.805a.74.74,0,0,0,.74.74H25.907a.74.74,0,0,0,.74-.74V.74A.74.74,0,0,0,25.907,0Zm-.74,15.2514V34.0648H1.48V1.48H25.1668Z" fill="#1a2026"/><path d="M18.7826,24.1568H5.459a.74.74,0,0,1,0-1.48H18.7826a.74.74,0,0,1,0,1.48Z" fill="#1a2026"/><path d="M21.7434,10.8332H5.459a.74.74,0,1,0,0,1.48H21.7434a.74.74,0,0,0,0-1.48Z" fill="#1a2026"/><path d="M15.8218,15.2744H5.459a.74.74,0,0,0,0,1.48H15.8218a.74.74,0,1,0,0-1.48Z" fill="#1a2026"/><path d="M5.459,27.1176a.74.74,0,1,0,0,1.48h7.402a.74.74,0,1,0,0-1.48Z" fill="#1a2026"/><rect x="0.8944" y="1.4574" width="25.1668" height="5.9216" fill="#1a2026"/></g></g></svg>