<?xml version="1.0" encoding="UTF-8"?>
<svg width="19px" height="19px" viewBox="0 0 19 19" version="1.1" xmlns="http://www.w3.org/2000/svg" xmlns:xlink="http://www.w3.org/1999/xlink">
    <!-- Generator: Sketch 54.1 (76490) - https://sketchapp.com -->
    <title>Fill 1</title>
    <desc>Created with Sketch.</desc>
    <g id="Page-1" stroke="none" stroke-width="1" fill="none" fill-rule="evenodd">
        <g id="filters---desktop" transform="translate(-1802.000000, -124.000000)">
            <path d="M1802.43202,124 C1802.19345,124 1802,124.193248 1802,124.431622 C1802,124.52274 1802.02893,124.611699 1802.08291,124.685543 L1809.11831,134.317266 L1809.11831,139.463267 C1809.11831,139.594546 1809.17811,139.718484 1809.28066,139.800533 L1813.17771,142.905882 C1813.36446,143.054435 1813.6365,143.023774 1813.78525,142.837652 C1813.84614,142.761432 1813.87939,142.666428 1813.87939,142.568617 L1813.87939,134.317266 L1820.91695,124.685543 C1821.05772,124.492943 1821.01518,124.223044 1820.82238,124.082697 C1820.74833,124.029149 1820.65938,124 1820.56783,124 L1802.43202,124 Z" id="Fill-1"></path>
        </g>
    </g>
</svg>