<?xml version="1.0" encoding="UTF-8"?>
<svg width="24px" height="21px" viewBox="0 0 24 21" version="1.1" xmlns="http://www.w3.org/2000/svg" xmlns:xlink="http://www.w3.org/1999/xlink">
    <!-- Generator: Sketch 55.1 (78136) - https://sketchapp.com -->
    <title>Go to Incident</title>
    
    <g id="Page-1" stroke="none" stroke-width="1" fill="none" fill-rule="evenodd">
        <g id="Group-2" transform="translate(1.000000, 0.000000)">
            <g id="incident" transform="translate(3.000000, 0.000000)" fill="#1A2026" fill-rule="nonzero">
                <path d="M12.76,21.0000001 L0.6316,21.0000001 C0.464056728,21.0000001 0.30334508,20.9335969 0.184874073,20.8151259 C0.0664030654,20.6966549 -1.27006805e-07,20.5359433 -1.27006805e-07,20.3684 L-1.27006805e-07,6.9873 C-1.27006805e-07,6.81975673 0.0664030654,6.65904508 0.184874073,6.54057407 C0.30334508,6.42210307 0.464056728,6.35569987 0.6316,6.35569987 L12.76,6.35569987 C12.9275433,6.35569987 13.0882549,6.42210307 13.2067259,6.54057407 C13.3251969,6.65904508 13.3916001,6.81975673 13.3916001,6.9873 L13.3916001,20.3684 C13.3916001,20.5359433 13.3251969,20.6966549 13.2067259,20.8151259 C13.0882549,20.9335969 12.9275433,21.0000001 12.76,21.0000001 Z M1.2631,19.7369 L12.1287,19.7369 L12.1287,7.6188 L1.2631,7.6188 L1.2631,19.7369 Z" id="Shape"></path>
                <path d="M15.532,17.9532001 C15.3644567,17.9532001 15.2037451,17.8867969 15.0852741,17.7683259 C14.9668031,17.6498549 14.9002938,17.4891433 14.9004,17.3216 L14.9004,4.5714 L3.4027,4.5714 C3.17517512,4.57426308 2.96369752,4.45452043 2.84910056,4.25794143 C2.73450359,4.06136242 2.73450359,3.81833758 2.84910056,3.62175857 C2.96369752,3.42517957 3.17517512,3.30543692 3.4027,3.30824978 L15.532,3.30824978 C15.6995433,3.30824978 15.8602549,3.37470307 15.9787259,3.49317407 C16.0971969,3.61164508 16.1636001,3.77235673 16.1636001,3.9399 L16.1636001,17.3216 C16.1636001,17.4891433 16.0971969,17.6498549 15.9787259,17.7683259 C15.8602549,17.8867969 15.6995433,17.9532001 15.532,17.9532001 Z" id="Path"></path>
                <path d="M18.6331,14.6455001 C18.4655567,14.6455001 18.3048451,14.5790969 18.1863741,14.4606259 C18.0679031,14.3421549 18.0013938,14.1814433 18.0015,14.0139 L18.0015,1.2631 L6.505,1.2631 C6.27747512,1.26596308 6.06599752,1.14622043 5.95140056,0.949641426 C5.83680359,0.753062422 5.83680359,0.510037578 5.95140056,0.313458574 C6.06599752,0.116879569 6.27747512,-0.00286308095 6.505,-5.02169514e-05 L18.6331,-5.02169514e-05 C18.8006433,-5.02169514e-05 18.9613549,0.0664030654 19.0798259,0.184874073 C19.1982969,0.30334508 19.2647001,0.464056728 19.2647001,0.6316 L19.2647001,14.014 C19.2647001,14.1815259 19.1982587,14.3422119 19.0797905,14.4606613 C18.9613224,14.5791106 18.8006259,14.6455001 18.6331,14.6455001 Z" id="Path"></path>
            </g>
            <g id="Group" transform="translate(0.000000, 11.000000)">
                <polyline id="Line" stroke="#1A2026" stroke-width="2" stroke-linecap="square" points="0 3 4.14951539 3 6 3"></polyline>
                <polygon id="Triangle" fill="#1A2026" points="13 3 7 6 7 -5.5109106e-16"></polygon>
            </g>
        </g>
    </g>
</svg>