<?xml version="1.0" encoding="UTF-8"?>
<svg width="21px" height="26px" viewBox="0 0 21 26" version="1.1" xmlns="http://www.w3.org/2000/svg" xmlns:xlink="http://www.w3.org/1999/xlink">
    <title>Group 2</title>
    <g id="Page-1" stroke="none" stroke-width="1" fill="none" fill-rule="evenodd">
        <g id="Group-2">
            <g id="Group" transform="translate(4.000000, 20.000000)">
                <polyline id="Line" stroke="#1A2026" stroke-width="2" stroke-linecap="square" points="0 3 4.14951539 3 6 3"></polyline>
                <polygon id="Triangle" fill="#1A2026" fill-rule="nonzero" points="13 3 7 6 7 -5.5109106e-16"></polygon>
            </g>
            <g id="routine-patrol-icon" fill="#302F2F" fill-rule="nonzero">
                <g id="patrol">
                    <g id="hiker">
                        <path d="M1.5385672,3.99869346 L2.74869082,4.17345122 C3.20002118,4.23850176 3.51649162,4.6734617 3.45356545,5.14002886 L2.85659144,9.5249733 C2.79366526,9.98963874 2.37290991,10.3168587 1.92335568,10.2517426 L0.711392499,10.0751488 C0.261901705,10.0101638 -0.0563448825,9.57513824 0.00835743338,9.11047279 L0.603555306,4.72546279 C0.66648148,4.25889563 1.08723683,3.93174123 1.5385672,3.99869346" id="Fill-1"></path>
                        <path d="M2.45933354,18.1880142 C3.00873626,18.3707409 3.60392255,18.0559633 3.78003705,17.4915081 L5.19230769,12.9830147 L3.90856648,11.8504664 C3.74127322,11.7039276 3.60038162,11.5538147 3.48241285,11.4 L1.78133926,16.8311261 C1.60354748,17.3955814 1.90993082,18.0070745 2.45933354,18.1880142" id="Fill-8"></path>
                        <path d="M3.54390472,9.48429559 C3.41730507,10.4048077 3.58551312,10.9892469 4.24812675,11.5755146 L6.40754108,13.4861495 L6.67983129,17.2538874 C6.72150088,17.8383265 7.22104633,18.2797613 7.78820538,18.2368851 C8.35536454,18.1940091 8.78552185,17.6792436 8.742139,17.0947414 L8.45424562,13.1001385 C8.42475262,12.6961573 8.22007608,12.281457 7.92349385,12.0187149 L6.59661451,10.8355865 C6.31563549,10.5853288 6.24453409,10.4119327 6.29654458,10.0330467 L6.64171066,7.51111195 L7.20372989,8.25639954 C7.36496242,8.46907763 7.64245367,8.6139106 7.904403,8.62280108 L10.6501285,8.70685085 C11.1218942,8.72110085 11.5207841,8.33502678 11.5346739,7.8471219 C11.5485638,7.36098252 11.1739047,6.95164181 10.7004257,6.93562633 L8.32935923,6.86406106 L6.60872989,4.58702456 C6.39193794,4.30107876 6.0727771,4.09729115 5.69989248,4.04369601 C4.93668444,3.93291173 4.22554808,4.48513075 4.11803934,5.27159204 L3.54390472,9.48429559 Z" id="Fill-5"></path>
                        <path d="M6.34615385,0 C7.30223072,0 8.07692308,0.765381902 8.07692308,1.70996838 C8.07692308,2.6546181 7.30223072,3.42 6.34615385,3.42 C5.39007698,3.42 4.61538462,2.6546181 4.61538462,1.70996838 C4.61538462,0.765381902 5.39007698,0 6.34615385,0" id="Fill-3"></path>
                    </g>
                    <g id="hiker" transform="translate(8.461538, 0.760000)">
                        <path d="M1.5385672,3.99869346 L2.74869082,4.17345122 C3.20002118,4.23850176 3.51649162,4.6734617 3.45356545,5.14002886 L2.85659144,9.5249733 C2.79366526,9.98963874 2.37290991,10.3168587 1.92335568,10.2517426 L0.711392499,10.0751488 C0.261901705,10.0101638 -0.0563448825,9.57513824 0.00835743338,9.11047279 L0.603555306,4.72546279 C0.66648148,4.25889563 1.08723683,3.93174123 1.5385672,3.99869346" id="Fill-1"></path>
                        <path d="M2.45933354,18.1880142 C3.00873626,18.3707409 3.60392255,18.0559633 3.78003705,17.4915081 L5.19230769,12.9830147 L3.90856648,11.8504664 C3.74127322,11.7039276 3.60038162,11.5538147 3.48241285,11.4 L1.78133926,16.8311261 C1.60354748,17.3955814 1.90993082,18.0070745 2.45933354,18.1880142" id="Fill-8"></path>
                        <path d="M3.54390472,9.48429559 C3.41730507,10.4048077 3.58551312,10.9892469 4.24812675,11.5755146 L6.40754108,13.4861495 L6.67983129,17.2538874 C6.72150088,17.8383265 7.22104633,18.2797613 7.78820538,18.2368851 C8.35536454,18.1940091 8.78552185,17.6792436 8.742139,17.0947414 L8.45424562,13.1001385 C8.42475262,12.6961573 8.22007608,12.281457 7.92349385,12.0187149 L6.59661451,10.8355865 C6.31563549,10.5853288 6.24453409,10.4119327 6.29654458,10.0330467 L6.64171066,7.51111195 L7.20372989,8.25639954 C7.36496242,8.46907763 7.64245367,8.6139106 7.904403,8.62280108 L10.6501285,8.70685085 C11.1218942,8.72110085 11.5207841,8.33502678 11.5346739,7.8471219 C11.5485638,7.36098252 11.1739047,6.95164181 10.7004257,6.93562633 L8.32935923,6.86406106 L6.60872989,4.58702456 C6.39193794,4.30107876 6.0727771,4.09729115 5.69989248,4.04369601 C4.93668444,3.93291173 4.22554808,4.48513075 4.11803934,5.27159204 L3.54390472,9.48429559 Z" id="Fill-5"></path>
                        <path d="M6.34615385,0 C7.30223072,0 8.07692308,0.765381902 8.07692308,1.70996838 C8.07692308,2.6546181 7.30223072,3.42 6.34615385,3.42 C5.39007698,3.42 4.61538462,2.6546181 4.61538462,1.70996838 C4.61538462,0.765381902 5.39007698,0 6.34615385,0" id="Fill-3"></path>
                    </g>
                </g>
            </g>
        </g>
    </g>
</svg>