<svg width="16" height="14" viewBox="0 0 16 14" fill="none" xmlns="http://www.w3.org/2000/svg">
<path d="M9.14286 0C5.35619 0 2.28571 3.07048 2.28571 6.85714H0L2.96381 9.82095L3.01714 9.92762L6.09524 6.85714H3.80952C3.80952 3.90857 6.19429 1.52381 9.14286 1.52381C12.0914 1.52381 14.4762 3.90857 14.4762 6.85714C14.4762 9.80571 12.0914 12.1905 9.14286 12.1905C7.67238 12.1905 6.33905 11.5886 5.37905 10.621L4.29714 11.7029C5.53905 12.9448 7.24571 13.7143 9.14286 13.7143C12.9295 13.7143 16 10.6438 16 6.85714C16 3.07048 12.9295 0 9.14286 0ZM8.38095 3.80952V7.61905L11.6419 9.55429L12.1905 8.63238L9.52381 7.04762V3.80952H8.38095Z" fill="#63666A"/>
</svg>