
<svg width="22" height="19" viewBox="0 0 22 19" fill="currentColor" xmlns="http://www.w3.org/2000/svg">
  <path d="M12.5714 0C7.36476 0 3.14286 4.22191 3.14286 9.42857H0L4.07524 13.5038L4.14857 13.6505L8.38095 9.42857H5.2381C5.2381 5.37429 8.51714 2.09524 12.5714 2.09524C16.6257 2.09524 19.9048 5.37429 19.9048 9.42857C19.9048 13.4829 16.6257 16.7619 12.5714 16.7619C10.5495 16.7619 8.71619 15.9343 7.39619 14.6038L5.90857 16.0914C7.61619 17.799 9.96286 18.8571 12.5714 18.8571C17.7781 18.8571 22 14.6352 22 9.42857C22 4.22191 17.7781 0 12.5714 0ZM11.5238 5.2381V10.4762L15.9762 13.1162L16.7829 11.7752L13.0952 9.58571V5.2381H11.5238Z" fill="currentColor"/>
</svg>
