<svg width="17" height="18" viewBox="0 0 17 18" fill="none" xmlns="http://www.w3.org/2000/svg">
<path d="M10.9371 18H0.541372C0.470265 18.0001 0.399847 17.9861 0.334144 17.9589C0.268442 17.9317 0.208744 17.8918 0.158464 17.8415C0.108184 17.7913 0.0683083 17.7316 0.0411178 17.6659C0.0139273 17.6002 -4.49668e-05 17.5297 1.08716e-07 17.4586V5.98913C-4.49668e-05 5.91802 0.0139273 5.8476 0.0411178 5.7819C0.0683083 5.7162 0.108184 5.6565 0.158464 5.60622C0.208744 5.55594 0.268442 5.51606 0.334144 5.48887C0.399847 5.46168 0.470265 5.44771 0.541372 5.44775H10.9371C11.0083 5.44771 11.0787 5.46168 11.1444 5.48887C11.2101 5.51606 11.2698 5.55594 11.3201 5.60622C11.3703 5.6565 11.4102 5.7162 11.4374 5.7819C11.4646 5.8476 11.4786 5.91802 11.4785 5.98913V17.4586C11.4786 17.5297 11.4646 17.6002 11.4374 17.6659C11.4102 17.7316 11.3703 17.7913 11.3201 17.8415C11.2698 17.8918 11.2101 17.9317 11.1444 17.9589C11.0787 17.9861 11.0083 18.0001 10.9371 18ZM1.08266 16.9174H10.396V6.53041H1.08266V16.9174Z" fill="#888B8D"/>
<path d="M13.3139 15.3883C13.2428 15.3883 13.1723 15.3743 13.1066 15.3471C13.0409 15.32 12.9812 15.2801 12.931 15.2298C12.8807 15.1795 12.8408 15.1198 12.8136 15.0541C12.7864 14.9884 12.7725 14.918 12.7725 14.8469V3.91815H2.91732C2.84566 3.91905 2.77454 3.90572 2.70807 3.87892C2.6416 3.85212 2.58111 3.81239 2.53012 3.76203C2.47913 3.71167 2.43864 3.65169 2.411 3.58557C2.38337 3.51944 2.36914 3.44849 2.36914 3.37682C2.36914 3.30515 2.38337 3.2342 2.411 3.16807C2.43864 3.10195 2.47913 3.04197 2.53012 2.99161C2.58111 2.94126 2.6416 2.90153 2.70807 2.87473C2.77454 2.84793 2.84566 2.83459 2.91732 2.83549H13.3139C13.385 2.83545 13.4554 2.84942 13.5211 2.87661C13.5868 2.9038 13.6465 2.94368 13.6968 2.99396C13.7471 3.04424 13.7869 3.10393 13.8141 3.16964C13.8413 3.23534 13.8553 3.30576 13.8552 3.37686V14.8469C13.8553 14.918 13.8413 14.9884 13.8141 15.0541C13.7869 15.1198 13.7471 15.1795 13.6968 15.2298C13.6465 15.2801 13.5868 15.32 13.5211 15.3471C13.4554 15.3743 13.385 15.3883 13.3139 15.3883Z" fill="#888B8D"/>
<path d="M15.971 12.5533C15.8999 12.5534 15.8295 12.5394 15.7638 12.5122C15.6981 12.485 15.6384 12.4451 15.5881 12.3949C15.5379 12.3446 15.498 12.2849 15.4708 12.2192C15.4436 12.1535 15.4296 12.0831 15.4297 12.012V1.0827H5.57553C5.50387 1.0836 5.43274 1.07027 5.36627 1.04347C5.2998 1.01667 5.23932 0.976936 5.18832 0.92658C5.13733 0.876223 5.09684 0.816243 5.06921 0.750118C5.04157 0.683992 5.02734 0.613039 5.02734 0.541371C5.02734 0.469704 5.04157 0.39875 5.06921 0.332625C5.09684 0.2665 5.13733 0.20652 5.18832 0.156163C5.23932 0.105807 5.2998 0.0660764 5.36627 0.0392766C5.43274 0.0124769 5.50387 -0.000858898 5.57553 4.28605e-05H15.971C16.0422 -2.215e-06 16.1126 0.01397 16.1783 0.0411605C16.244 0.068351 16.3037 0.108226 16.354 0.158506C16.4042 0.208786 16.4441 0.268485 16.4713 0.334187C16.4985 0.39989 16.5125 0.470308 16.5124 0.541414V12.012C16.5125 12.0831 16.4985 12.1536 16.4713 12.2192C16.4441 12.2849 16.4042 12.3446 16.3539 12.3949C16.3036 12.4452 16.244 12.485 16.1783 12.5122C16.1126 12.5394 16.0421 12.5534 15.971 12.5533Z" fill="#888B8D"/>
</svg>
