<?xml version="1.0" encoding="UTF-8"?>
<svg width="25px" height="25px" viewBox="0 0 25 25" version="1.1" xmlns="http://www.w3.org/2000/svg" xmlns:xlink="http://www.w3.org/1999/xlink">
    <title>gps</title>
    <g id="Page-1" stroke="none" stroke-width="1" fill="none" fill-rule="evenodd">
        <g id="PATROLS--HEADER" transform="translate(-407.000000, -14.000000)" stroke="#000000">
            <g id="gps" transform="translate(407.000000, 14.000000)">
                <rect id="Rectangle" stroke-opacity="0.747432255" fill-opacity="0" fill="#171717" opacity="0.636811756" x="0.5" y="0.5" width="24" height="24" rx="3"></rect>
                <g opacity="0.946056548" transform="translate(4.999950, 3.999950)" fill="#D4D4D4" stroke-opacity="0.389040647" stroke-width="0.75">
                    <path d="M9.172,8.102 C7.791,8.102 6.672,6.9825 6.672,5.602 C6.672,4.221 7.791,3.102 9.172,3.102 C10.553,3.102 11.672,4.221 11.672,5.602 C11.672,6.9825 10.553,8.102 9.172,8.102 M9.172,0 C6.3155,0 4,2.3155 4,5.172 C4,6.07 4.229,6.914 4.6315,7.6495 C4.6435,7.7055 8.679,14.7155 8.679,14.7155 C8.7805,14.891 8.9685,15 9.172,15 C9.3755,14.9995 9.563,14.891 9.665,14.7155 C9.665,14.7155 13.7,7.7055 13.7125,7.6495 C14.115,6.914 14.344,6.07 14.344,5.172 C14.344,2.3155 12.0285,0 9.172,0" id="Fill-1-Copy"></path>
                    <path d="M4.672,6.602 C4.672,5.221 5.791,4.102 7.172,4.102 C8.553,4.102 9.672,5.221 9.672,6.602 C9.672,7.9825 8.553,9.102 7.172,9.102 C5.791,9.102 4.672,7.9825 4.672,6.602 Z M2,6.172 C2,7.07 2.229,7.914 2.6315,8.6495 C2.6435,8.7055 6.679,15.7155 6.679,15.7155 C6.7805,15.891 6.9685,16 7.172,16 C7.3755,15.9995 7.563,15.891 7.665,15.7155 C7.665,15.7155 11.7,8.7055 11.7125,8.6495 C12.115,7.914 12.344,7.07 12.344,6.172 C12.344,3.3155 10.0285,1 7.172,1 C4.3155,1 2,3.3155 2,6.172 Z" id="Fill-1"></path>
                    <path d="M5.172,10.102 C3.791,10.102 2.672,8.9825 2.672,7.602 C2.672,6.221 3.791,5.102 5.172,5.102 C6.553,5.102 7.672,6.221 7.672,7.602 C7.672,8.9825 6.553,10.102 5.172,10.102 M5.172,2 C2.3155,2 4.80504525e-13,4.3155 4.80504525e-13,7.172 C4.80504525e-13,8.07 0.229,8.914 0.6315,9.6495 C0.6435,9.7055 4.679,16.7155 4.679,16.7155 C4.7805,16.891 4.9685,17 5.172,17 C5.3755,16.9995 5.563,16.891 5.665,16.7155 C5.665,16.7155 9.7,9.7055 9.7125,9.6495 C10.115,8.914 10.344,8.07 10.344,7.172 C10.344,4.3155 8.0285,2 5.172,2" id="Fill-1"></path>
                </g>
            </g>
        </g>
    </g>
</svg>