<svg xmlns="http://www.w3.org/2000/svg" width="26.6472" height="35.5295" viewBox="0 0 26.6472 35.5295"><title>note</title><g id="Layer_2" data-name="Layer 2"><g id="Layer_1-2" data-name="Layer 1"><polygon points="19.245 28.128 19.245 33.442 24.56 28.128 19.245 28.128" fill="none"/><polygon points="19.245 28.128 19.245 33.442 24.56 28.128 19.245 28.128" fill="none"/><path d="M26.43,28.3549l-6.9579,6.9578a.74.74,0,0,1-.5234.2169H.74a.74.74,0,0,1-.74-.74V.74A.74.74,0,0,1,.74,0H25.907a.74.74,0,0,1,.74.74V27.8315A.74.74,0,0,1,26.43,28.3549Zm-7.1852,5.0874L24.56,28.1276H19.2452ZM25.1668,1.48H1.48V34.0491H17.7648V27.3874a.74.74,0,0,1,.74-.74h6.6618Z"/><path d="M18.505,19.2452H5.1814a.74.74,0,1,1,0-1.48H18.505a.74.74,0,0,1,0,1.48Z"/><path d="M21.4658,8.8824H5.1814a.74.74,0,1,0,0,1.48H21.4658a.74.74,0,1,0,0-1.48Z"/><path d="M15.5442,13.3236H5.1814a.74.74,0,0,0,0,1.48H15.5442a.74.74,0,0,0,0-1.48Z"/><path d="M5.1814,22.206a.74.74,0,0,0,0,1.48h7.402a.74.74,0,0,0,0-1.48Z"/></g></g></svg>