<svg width="25" height="24" viewBox="0 0 25 24" fill="currentColor" xmlns="http://www.w3.org/2000/svg">
  <path fill-rule="evenodd" clip-rule="evenodd" d="M1.92013 5.05102L3.43036 5.27177C3.99362 5.35394 4.38857 5.90336 4.31004 6.4927L3.56502 12.0316C3.48649 12.6185 2.96139 13.0318 2.40034 12.9496L0.887816 12.7265C0.326853 12.6444 -0.0703183 12.0949 0.0104301 11.508L0.753236 5.96904C0.831767 5.3797 1.35687 4.96645 1.92013 5.05102Z" fill="currentColor"/>
  <path fill-rule="evenodd" clip-rule="evenodd" d="M3.0694 22.9743C3.75506 23.2052 4.49785 22.8075 4.71764 22.0945L6.48015 16.3996L4.87804 14.969C4.66926 14.7839 4.49343 14.5943 4.3462 14.4L2.22327 21.2604C2.00138 21.9734 2.38375 22.7458 3.0694 22.9743Z" fill="currentColor"/>
  <path fill-rule="evenodd" clip-rule="evenodd" d="M4.42219 11.9802C4.26419 13.1429 4.47412 13.8811 5.30106 14.6217L7.996 17.0351L8.33582 21.7944C8.38782 22.5326 9.01125 23.0902 9.71907 23.036C10.4269 22.9819 10.9637 22.3316 10.9096 21.5933L10.5503 16.5475C10.5135 16.0372 10.258 15.5134 9.88791 15.1815L8.23196 13.687C7.8813 13.3709 7.79257 13.1519 7.85748 12.6733L8.28824 9.48772L8.98964 10.4291C9.19086 10.6978 9.53717 10.8807 9.86408 10.892L13.2907 10.9981C13.8795 11.0161 14.3773 10.5284 14.3946 9.91215C14.412 9.29808 13.9444 8.78102 13.3535 8.76079L10.3944 8.67039L8.24708 5.79414C7.97653 5.43295 7.57822 5.17553 7.11286 5.10783C6.16038 4.96789 5.27288 5.66543 5.13871 6.65886L4.42219 11.9802Z" fill="currentColor"/>
  <path fill-rule="evenodd" clip-rule="evenodd" d="M7.91976 0C9.11294 0 10.0798 0.966796 10.0798 2.15996C10.0798 3.3532 9.11294 4.31999 7.91976 4.31999C6.72658 4.31999 5.75977 3.3532 5.75977 2.15996C5.75977 0.966796 6.72658 0 7.91976 0Z" fill="currentColor"/>
  <path fill-rule="evenodd" clip-rule="evenodd" d="M12.4797 6.01104L13.9899 6.23179C14.5532 6.31396 14.9481 6.86338 14.8696 7.45273L14.1246 12.9916C14.0461 13.5785 13.521 13.9919 12.9599 13.9096L11.4474 13.6865C10.8864 13.6045 10.4893 13.055 10.57 12.468L11.3128 6.92906C11.3913 6.33972 11.9164 5.92647 12.4797 6.01104Z" fill="currentColor"/>
  <path fill-rule="evenodd" clip-rule="evenodd" d="M13.6292 23.9344C14.3149 24.1652 15.0577 23.7676 15.2775 23.0546L17.04 17.3596L15.4379 15.9291C15.2291 15.744 15.0532 15.5543 14.906 15.36L12.7831 22.2204C12.5612 22.9334 12.9436 23.7058 13.6292 23.9344Z" fill="currentColor"/>
  <path fill-rule="evenodd" clip-rule="evenodd" d="M14.9818 12.9402C14.8238 14.103 15.0337 14.8412 15.8606 15.5818L18.5556 17.9952L18.8954 22.7544C18.9474 23.4927 19.5708 24.0503 20.2786 23.9961C20.9865 23.942 21.5233 23.2917 21.4691 22.5534L21.1099 17.5076C21.073 16.9973 20.8176 16.4735 20.4475 16.1416L18.7915 14.6471C18.4409 14.331 18.3521 14.112 18.417 13.6334L18.8478 10.4478L19.5492 11.3892C19.7504 11.6579 20.0967 11.8408 20.4237 11.852L23.8503 11.9582C24.4391 11.9762 24.9369 11.4885 24.9542 10.8722C24.9716 10.2582 24.504 9.7411 23.9131 9.72087L20.954 9.63047L18.8067 6.75422C18.5361 6.39303 18.1378 6.13561 17.6724 6.06792C16.7199 5.92798 15.8325 6.62552 15.6983 7.61894L14.9818 12.9402Z" fill="currentColor"/>
  <path fill-rule="evenodd" clip-rule="evenodd" d="M18.4793 0.960083C19.6725 0.960083 20.6393 1.92688 20.6393 3.12004C20.6393 4.31328 19.6725 5.28007 18.4793 5.28007C17.2862 5.28007 16.3193 4.31328 16.3193 3.12004C16.3193 1.92688 17.2862 0.960083 18.4793 0.960083Z" fill="currentColor"/>
</svg>
