<?xml version="1.0" encoding="UTF-8"?>
<svg width="20px" height="21px" viewBox="0 0 20 21" version="1.1" xmlns="http://www.w3.org/2000/svg" xmlns:xlink="http://www.w3.org/1999/xlink">
    <!-- Generator: Sketch 55.1 (78136) - https://sketchapp.com -->
    <title>Path</title>
    <desc>Created with Sketch.</desc>
    <g id="Page-1" stroke="none" stroke-width="1" fill-rule="evenodd">
        <path d="M19.9541016,20.5 L0.56640625,20.5 C1.02949733,18.3794242 2.09895866,16.9503537 2.90760271,16.2127884 C3.71624677,15.4752231 5.16974225,14.9985829 7.26808917,14.7828678 L7.26808917,12.8635565 C6.94924464,12.6336611 6.65382903,12.4432523 6.38184232,12.2923301 C5.97386225,12.0659469 5.72102988,11.716933 5.5,11 C5.27897012,10.283067 4.5404177,5.0168442 5.46113001,3.5120429 C6.07493821,2.50884204 6.67725793,1.83816107 7.26808917,1.5 C8.46393409,1.07486979 9.37457103,0.862304688 10,0.862304688 C10.5887536,0.862304688 11.4993906,1.07486979 12.7319108,1.5 C13.3227421,1.83816107 13.9250618,2.50884204 14.53887,3.5120429 C15.4595823,5.0168442 14.7210299,10.283067 14.5,11 C14.2789701,11.716933 14.0261377,12.0659469 13.6181577,12.2923301 C13.346171,12.4432523 13.0507554,12.6336611 12.7319108,12.8635565 L12.7319108,14.7828678 C14.8302577,14.9985829 16.2837532,15.4752231 17.0923973,16.2127884 C17.9010413,16.9503537 19.4910105,18.3794242 19.9541016,20.5 Z" id="Path" fill="#6A6A6A"></path>
    </g>
</svg>