<svg width="16" height="16" viewBox="0 0 16 16" fill="currentColor" xmlns="http://www.w3.org/2000/svg">
  <path d="M15.736 6.79458C15.736 6.26944 15.5274 5.76582 15.1561 5.39449C14.7847 5.02316 14.2811 4.81455 13.756 4.81455C13.5185 4.82402 13.2841 4.8709 13.0612 4.95349L9.90011 2.3482C9.9023 2.32143 9.91478 2.29656 9.93488 2.27874C9.97247 1.99434 9.94885 1.70518 9.86568 1.43062C9.7825 1.15607 9.64167 0.902441 9.45258 0.686709C9.26348 0.470977 9.03049 0.298115 8.7692 0.179686C8.50791 0.0612577 8.22437 0 7.93749 0C7.65061 0 7.36707 0.0612577 7.10578 0.179686C6.84449 0.298115 6.6115 0.470977 6.4224 0.686709C6.2333 0.902441 6.09247 1.15607 6.0093 1.43062C5.92613 1.70518 5.90251 1.99434 5.9401 2.27874V2.3482L2.77898 4.98824C2.53931 4.87718 2.2789 4.81799 2.01478 4.81455C1.48639 4.81447 0.979162 5.02197 0.602304 5.39233C0.225446 5.76269 0.00911004 6.26627 0 6.79458C0.00597057 7.18545 0.12364 7.56646 0.339061 7.89267C0.554482 8.21888 0.858667 8.47668 1.2158 8.63565L2.43161 12.6652C2.16645 12.9478 1.99007 13.302 1.92429 13.6839C1.8585 14.0658 1.90626 14.4586 2.06159 14.8136C2.21692 15.1686 2.47302 15.4703 2.79814 15.6812C3.12327 15.892 3.50313 16.0029 3.89064 15.9999C4.26114 16.0026 4.62468 15.8994 4.93852 15.7025C5.25236 15.5056 5.50341 15.2231 5.66218 14.8883H10.2475C10.3829 15.1328 10.5685 15.3459 10.7921 15.5135C11.0157 15.6812 11.2722 15.7995 11.5449 15.8609C11.8175 15.9223 12.1001 15.9253 12.3739 15.8696C12.6478 15.814 12.9068 15.701 13.1339 15.5381C13.361 15.3752 13.551 15.1661 13.6914 14.9245C13.8319 14.6829 13.9197 14.4142 13.9489 14.1363C13.9781 13.8584 13.9482 13.5774 13.8611 13.3119C13.7739 13.0463 13.6316 12.8023 13.4434 12.5957L14.6592 8.56617C14.9901 8.40583 15.2677 8.15339 15.4587 7.83913C15.6498 7.52488 15.746 7.16219 15.736 6.79458ZM12.0191 12.0052C11.5817 12.0129 11.1586 12.1629 10.8139 12.4324C10.4692 12.7018 10.2217 13.0762 10.1086 13.4989H5.83587C5.72119 13.0705 5.46841 12.692 5.1167 12.4219C4.765 12.1518 4.33407 12.0054 3.89064 12.0052H3.68218L2.67483 8.63565C3.05953 8.49434 3.39197 8.23908 3.62782 7.90393C3.86367 7.56877 3.99165 7.16964 3.99478 6.75983C3.99624 6.46886 3.92462 6.1822 3.78641 5.92615L6.53061 3.63348C6.89761 4.00611 7.39713 4.21841 7.9201 4.22402C8.45361 4.22005 8.96458 4.0082 9.34436 3.63348L11.9843 5.85667C11.8456 6.13744 11.7743 6.44667 11.776 6.75983C11.7715 7.18531 11.9043 7.60091 12.1546 7.94504C12.4048 8.28916 12.7593 8.54349 13.1655 8.67038L12.158 11.9704L12.0191 12.0052Z" fill="currentColor"/>
</svg>
