<svg width="16" height="14" viewBox="0 0 16 14" fill="currentColor" xmlns="http://www.w3.org/2000/svg">
<path d="M13.25 4H12.5V0.25H3.5V4H2.75C1.505 4 0.5 5.005 0.5 6.25V10.75H3.5V13.75H12.5V10.75H15.5V6.25C15.5 5.005 14.495 4 13.25 4ZM5 1.75H11V4H5V1.75ZM11 12.25H5V9.25H11V12.25ZM12.5 9.25V7.75H3.5V9.25H2V6.25C2 5.8375 2.3375 5.5 2.75 5.5H13.25C13.6625 5.5 14 5.8375 14 6.25V9.25H12.5Z" fill="currentColor"/>
<path d="M12.5 7.375C12.9142 7.375 13.25 7.03921 13.25 6.625C13.25 6.21079 12.9142 5.875 12.5 5.875C12.0858 5.875 11.75 6.21079 11.75 6.625C11.75 7.03921 12.0858 7.375 12.5 7.375Z" fill="currentColor"/>
</svg>
