<svg width="16" height="14" viewBox="0 0 16 14" fill="currentColor" xmlns="http://www.w3.org/2000/svg">
<path d="M10.625 7C10.625 6.175 9.95 5.5 9.125 5.5C8.3 5.5 7.625 6.175 7.625 7C7.625 7.825 8.3 8.5 9.125 8.5C9.95 8.5 10.625 7.825 10.625 7ZM9.125 0.25C5.3975 0.25 2.375 3.2725 2.375 7H0.125L3.125 10L6.125 7H3.875C3.875 4.0975 6.2225 1.75 9.125 1.75C12.0275 1.75 14.375 4.0975 14.375 7C14.375 9.9025 12.0275 12.25 9.125 12.25C7.9925 12.25 6.9425 11.8825 6.08 11.275L5.015 12.355C6.155 13.225 7.58 13.75 9.125 13.75C12.8525 13.75 15.875 10.7275 15.875 7C15.875 3.2725 12.8525 0.25 9.125 0.25Z" fill="currentColor" />
</svg>
