<?xml version="1.0" encoding="UTF-8"?>
<svg width="422px" height="423px" viewBox="0 0 422 423" version="1.1" xmlns="http://www.w3.org/2000/svg" xmlns:xlink="http://www.w3.org/1999/xlink">
    <!-- Generator: Sketch 55.2 (78181) - https://sketchapp.com -->
    <title>Combined Shape</title>
    <desc>Created with Sketch.</desc>
    <g id="Page-1" stroke="none" stroke-width="1" fill="none" fill-rule="evenodd">
        <path d="M359,151.5 L359,218 L368,218 L368,151.5 L390.625,151.5 L448.5,151.5 C449.604569,151.5 450.5,152.395431 450.5,153.5 L450.5,269.5 C450.5,270.604569 449.604569,271.5 448.5,271.5 L-26.5,271.5 C-27.6045695,271.5 -28.5,270.604569 -28.5,269.5 L-28.5,153.5 C-28.5,152.395431 -27.6045695,151.5 -26.5,151.5 C-7.20833333,151.5 12.0833333,151.5 31.375,151.5 C39.25,151.5 47.125,151.5 55,151.5 L55,218 L64,218 L64,151.5 C73.0833333,151.5 82.1666667,151.5 91.25,151.5 L131,151.5 L131,218 L140,218 L140,151.5 L151.125,151.5 L207,151.5 L207,218 L216,218 L216,151.5 L270.875,151.5 L283,151.5 L283,218 L292,218 L292,151.5 L330.75,151.5 L359,151.5 Z" id="Combined-Shape" fill="#333333" transform="translate(211.000000, 211.500000) rotate(-315.000000) translate(-211.000000, -211.500000) "></path>
    </g>
</svg>