<?xml version="1.0" encoding="UTF-8"?>
<svg width="17px" height="19px" viewBox="0 0 17 19" version="1.1" xmlns="http://www.w3.org/2000/svg" xmlns:xlink="http://www.w3.org/1999/xlink">
    <title>ranger</title>
    <g id="ranger" stroke="none" stroke-width="1" fill="none" fill-rule="evenodd">
        <path d="M16.9992442,17.0906364 C16.9652442,16.1788182 16.8472442,15.2633636 16.6722442,14.3660909 C16.4602442,13.2788182 16.1902442,11.6851818 15.1462442,10.977 C14.5422442,10.567 13.7612442,10.4324545 13.0692442,10.1860909 C12.7332442,10.0651818 12.4322442,9.94609091 12.1482442,9.81063636 C11.1942442,10.7624545 9.94924421,11.2597273 8.50024421,11.2597273 C7.05124421,11.2597273 5.80624421,10.7624545 4.85224421,9.81063636 C4.56824421,9.94609091 4.26824421,10.0651818 3.93124421,10.1860909 C3.23924421,10.4324545 2.45824421,10.567 1.85424421,10.977 C0.811244207,11.6851818 0.540244207,13.2788182 0.328244207,14.3660909 C0.153244207,15.2633636 0.0362442068,16.1788182 0.00124420679,17.0906364 C-0.0247557932,17.7960909 0.358244207,17.8951818 1.00824421,18.1088182 C1.82124421,18.3751818 15.1792442,18.3760909 15.9922442,18.1088182 C16.6422442,17.8951818 17.0252442,17.797 16.9992442,17.0906364" id="Fill-4" fill="#54585D"></path>
        <path d="M8.50014421,10.2809091 C11.6421442,10.2809091 12.7721442,7.42090909 13.0681442,5.07272727 C13.4331442,2.17818182 11.9281442,6.6879835e-13 8.50014421,6.6879835e-13 C5.07314421,6.6879835e-13 3.56714421,2.17818182 3.93214421,5.07272727 C4.22914421,7.42090909 5.35814421,10.2809091 8.50014421,10.2809091" id="Fill-1" fill="#54585D"></path>
    </g>
</svg>