<?xml version="1.0" encoding="UTF-8"?>
<svg width="40px" height="40px" viewBox="0 0 40 40" version="1.1" xmlns="http://www.w3.org/2000/svg" xmlns:xlink="http://www.w3.org/1999/xlink">
    <!-- Generator: Sketch 52.6 (67491) - http://www.bohemiancoding.com/sketch -->
    <title>tracks_off</title>
    <desc>Created with Sketch.</desc>
    <g id="Page-1" stroke="none" stroke-width="1" fill="none" fill-rule="evenodd">
        <g id="tracks_off">
            <rect id="Rectangle" fill="#FFFFFF" x="0.4999" y="0.5" width="39" height="39" rx="2.5"></rect>
            <path d="M37,1 C38.1040441,1.00126747 38.9987325,1.89595593 39,3 L39,37 C38.9987325,38.1040441 38.1040441,38.9987325 37,39 L3,39 C1.89595593,38.9987325 1.00126747,38.1040441 1,37 L1,3 C1.00126747,1.89595593 1.89595593,1.00126747 3,1 L37,1 Z M37,2.22044605e-16 L3,2.22044605e-16 C1.34515177,0.00483298734 0.00483298734,1.34515177 0,3 L0,37 C0.00483298734,38.6548482 1.34515177,39.995167 3,40 L37,40 C38.6548482,39.995167 39.995167,38.6548482 40,37 L40,3 C39.995167,1.34515177 38.6548482,0.00483298734 37,0 Z" id="Shape" fill="#006CD9" fill-rule="nonzero"></path>
            <path d="M7.5438,29.4033 C7.1685493,29.4025344 6.85161698,29.1245506 6.80193305,28.7526028 C6.75224912,28.380655 6.98510669,28.0292316 7.347,27.93 L8.0706,27.7327 C8.32913524,27.6622115 8.60563683,27.7350043 8.79594928,27.9236582 C8.98626174,28.112312 9.06147207,28.3881658 8.99324928,28.6473082 C8.92502649,28.9064505 8.72373524,29.1095115 8.4652,29.18 L7.7416,29.3773 C7.67707889,29.3945366 7.61058379,29.4032771 7.5438,29.4033 Z" id="Path" fill="#90908C"></path>
            <path d="M11.5463,28.3145 C11.1707203,28.3140311 10.8533969,28.0358255 10.8038036,27.6635341 C10.7542102,27.2912428 10.9876401,26.9396707 11.35,26.8409 L12.7553,26.4591 C13.1526285,26.3567265 13.5584703,26.5926374 13.666144,26.9885624 C13.7738177,27.3844874 13.5433509,27.7934454 13.1489,27.9064 L11.7436,28.2882 C11.6792558,28.3055037 11.6129302,28.3143449 11.5463,28.3145 Z M16.23,27.041 C15.8543256,27.0407806 15.5367683,26.7626499 15.4870383,26.3902815 C15.4373083,26.0179131 15.6707492,25.6661964 16.0332,25.5674 L17.4385,25.1846 C17.6970352,25.1141294 17.9735273,25.1869387 18.1638243,25.3756015 C18.3541213,25.5642643 18.4293126,25.8401181 18.3610743,26.0992515 C18.292836,26.3583849 18.0915352,26.5614294 17.833,26.6319 L16.4277,27.0147 C16.3632246,27.0320293 16.2967635,27.0408706 16.23,27.041 Z" id="Shape" fill="#006CD9" fill-rule="nonzero"></path>
            <path d="M20.9135,25.7666 C20.5851791,25.7661807 20.2952421,25.5523993 20.1977846,25.2388761 C20.100327,24.9253528 20.2179745,24.5848752 20.4882,24.3984 C20.3927209,24.0456133 20.5654356,23.675372 20.8971053,23.5218469 C21.2287749,23.3683218 21.6228139,23.4762209 21.83,23.7773 L22.2553,24.3955 C22.3933386,24.595709 22.4256007,24.8504674 22.3418275,25.0787662 C22.2580543,25.3070651 22.0686717,25.4804919 21.8339,25.5439 L21.11,25.74 C21.0459361,25.7573775 20.9798783,25.7663197 20.9135,25.7666 Z" id="Path" fill="#006CD9"></path>
            <path d="M19.1332,21.9336 C18.8863103,21.9339641 18.6550819,21.812702 18.515,21.6094 L17.6239,20.3155 C17.4717763,20.094817 17.4489412,19.8097406 17.5639964,19.5676561 C17.6790516,19.3255717 17.9145175,19.1632576 18.1816964,19.1418561 C18.4488753,19.1204546 18.7071763,19.243217 18.8593,19.4639 L19.7504,20.7578 C19.9086154,20.9872121 19.926585,21.2854333 19.7970611,21.5321834 C19.6675373,21.7789335 19.411879,21.9335222 19.1332,21.9336 Z M16.1625,17.6211 C15.9156103,17.6214641 15.6843819,17.500202 15.5443,17.2969 L14.6532,16.0039 C14.5010763,15.783217 14.4782412,15.4981406 14.5932964,15.2560561 C14.7083516,15.0139717 14.9438175,14.8516576 15.2109964,14.8302561 C15.4781753,14.8088546 15.7364763,14.931617 15.8886,15.1523 L16.7797,16.4453 C16.9379154,16.6747121 16.955885,16.9729333 16.8263611,17.2196834 C16.6968373,17.4664335 16.441179,17.6210222 16.1625,17.6211 Z" id="Shape" fill="#006CD9" fill-rule="nonzero"></path>
            <path d="M13.1918,13.31 C12.9449103,13.3103641 12.7136819,13.189102 12.5736,12.9858 L12.1478,12.3676 C11.9956881,12.1466876 11.9730327,11.8613905 12.088373,11.6192398 C12.2037133,11.3770891 12.4395142,11.2148988 12.7069,11.1938 L13.4549,11.1352 C13.865086,11.1115478 14.2208448,11.4158094 14.2611,11.8247 C14.2821997,12.0916614 14.1593575,12.3496186 13.9388,12.5015 C13.9548528,12.7097854 13.8834127,12.9153434 13.7416462,13.0687799 C13.5998796,13.2222164 13.4006026,13.3096605 13.1917,13.3101 L13.1918,13.31 Z" id="Path" fill="#006CD9"></path>
            <path d="M16.6947,12.3848 C16.290561,12.386386 15.9578389,12.0674666 15.9423106,11.6636229 C15.9267823,11.2597792 16.2340325,10.9162521 16.6371,10.8868 L18.0009,10.7804 C18.4140366,10.7480361 18.7751861,11.0567134 18.80755,11.46985 C18.8399139,11.8829866 18.5312366,12.2441361 18.1181,12.2765 L16.7543,12.3829 C16.7343,12.3838 16.7142,12.3848 16.6947,12.3848 Z M21.2406,12.0293 C20.8365669,12.0306024 20.5041163,11.7116133 20.4887267,11.3078713 C20.4733371,10.9041292 20.7805401,10.5607582 21.1835,10.5313 L22.5478,10.4249 C22.9578686,10.4013157 23.3134465,10.7056113 23.3535,11.1144 C23.36912,11.3128156 23.305233,11.5093034 23.1759088,11.6605911 C23.0465846,11.8118789 22.8624296,11.9055588 22.664,11.921 L21.3,12.0273 C21.28,12.0283 21.26,12.0293 21.2406,12.0293 Z M25.787,11.6738 C25.382861,11.675386 25.0501389,11.3564666 25.0346106,10.9526229 C25.0190823,10.5487792 25.3263325,10.2052521 25.7294,10.1758 L27.0932,10.0694 C27.5063366,10.0370361 27.8674861,10.3457134 27.89985,10.75885 C27.9322139,11.1719866 27.6235366,11.5331361 27.2104,11.5655 L25.8466,11.6719 C25.8265,11.6729 25.8065,11.6738 25.787,11.6738 Z" id="Shape" fill="#006CD9" fill-rule="nonzero"></path>
            <path d="M30.3329,11.3193 C29.928761,11.320886 29.5960389,11.0019666 29.5805106,10.5981229 C29.5649823,10.1942792 29.8722325,9.85075213 30.2753,9.8213 L31.0233,9.7627 C31.4338951,9.73783065 31.7903838,10.0427165 31.8295,10.4522 C31.845124,10.6505354 31.7813047,10.8469522 31.6520864,10.9982257 C31.5228681,11.1494992 31.3388399,11.2432332 31.1405,11.2588 L30.3925,11.3174 C30.3724,11.3184 30.3529,11.3193 30.3329,11.3193 Z" id="Path" fill="#90908C"></path>
            <circle id="Oval" fill="#006CD9" cx="31.4375" cy="10.3711" r="3"></circle>
            <circle id="Oval" fill="#006CD9" cx="8.5625" cy="28.6211" r="3"></circle>
        </g>
    </g>
</svg>