<svg width="30" height="25" viewBox="0 0 30 25" fill="none" xmlns="http://www.w3.org/2000/svg">
<path d="M2.79789 22.011C2.62015 22.0107 2.44856 21.9459 2.31493 21.8287C2.18131 21.7115 2.0947 21.5498 2.07117 21.3736C2.04763 21.1974 2.08877 21.0187 2.18695 20.8705C2.28513 20.7224 2.43369 20.6148 2.60511 20.5678L3.31394 20.3745C3.40703 20.3492 3.50421 20.3424 3.59993 20.3545C3.69565 20.3667 3.78803 20.3976 3.8718 20.4455C3.95558 20.4934 4.0291 20.5573 4.08817 20.6336C4.14725 20.7099 4.19072 20.7971 4.2161 20.8901C4.24148 20.9832 4.24827 21.0804 4.2361 21.1761C4.22392 21.2719 4.19301 21.3642 4.14514 21.448C4.09726 21.5318 4.03335 21.6053 3.95705 21.6644C3.88076 21.7235 3.79358 21.7669 3.70049 21.7923L2.99166 21.9856C2.92845 22.0025 2.86331 22.011 2.79789 22.011V22.011Z" fill="#63666A"/>
<path d="M6.71864 20.9448C6.54075 20.9446 6.36898 20.8798 6.23522 20.7625C6.10146 20.6453 6.01479 20.4834 5.9913 20.3071C5.96781 20.1308 6.0091 19.9519 6.10749 19.8037C6.20589 19.6555 6.35472 19.548 6.52635 19.5013L7.90297 19.1273C8.09001 19.0791 8.28851 19.1065 8.4555 19.2035C8.62249 19.3006 8.74453 19.4595 8.79522 19.6459C8.84591 19.8323 8.82116 20.0311 8.72633 20.1994C8.6315 20.3677 8.47422 20.4918 8.28853 20.545L6.91191 20.919C6.84888 20.936 6.78391 20.9446 6.71864 20.9448V20.9448ZM11.3068 19.6973C11.1288 19.6972 10.957 19.6325 10.8231 19.5153C10.6893 19.398 10.6025 19.2362 10.579 19.0598C10.5554 18.8835 10.5967 18.7046 10.695 18.5563C10.7934 18.4081 10.9423 18.3005 11.114 18.2538L12.4906 17.8788C12.5837 17.8534 12.6809 17.8466 12.7766 17.8588C12.8723 17.871 12.9647 17.9019 13.0484 17.9498C13.1322 17.9976 13.2057 18.0616 13.2648 18.1379C13.3239 18.2141 13.3673 18.3013 13.3927 18.3944C13.4181 18.4875 13.4249 18.5847 13.4127 18.6804C13.4005 18.7761 13.3696 18.8685 13.3217 18.9523C13.2738 19.036 13.2099 19.1096 13.1336 19.1686C13.0573 19.2277 12.9701 19.2712 12.877 19.2965L11.5004 19.6715C11.4373 19.6885 11.3722 19.6972 11.3068 19.6973V19.6973Z" fill="#63666A"/>
<path d="M15.8949 18.4494C15.7382 18.4492 15.5857 18.3989 15.4595 18.3059C15.3334 18.2129 15.2403 18.0821 15.1938 17.9324C15.1473 17.7828 15.1498 17.6222 15.201 17.4741C15.2521 17.326 15.3493 17.1981 15.4783 17.1091C15.433 16.9417 15.4483 16.7637 15.5216 16.6066C15.5949 16.4494 15.7215 16.3233 15.8788 16.2505C16.0362 16.1776 16.2142 16.1628 16.3815 16.2086C16.5487 16.2544 16.6944 16.3579 16.7927 16.5007L17.2093 17.1063C17.2759 17.2029 17.3184 17.3142 17.3332 17.4306C17.3479 17.5471 17.3345 17.6654 17.2941 17.7756C17.2536 17.8858 17.1873 17.9847 17.1008 18.064C17.0142 18.1433 16.9098 18.2006 16.7965 18.2312L16.0874 18.4233C16.0246 18.4404 15.9599 18.4491 15.8949 18.4494V18.4494Z" fill="#63666A"/>
<path d="M14.1507 14.6939C14.0316 14.6941 13.9142 14.6653 13.8087 14.61C13.7032 14.5546 13.6127 14.4745 13.5451 14.3764L12.6722 13.1089C12.5616 12.9484 12.5193 12.7505 12.5545 12.5588C12.5898 12.3671 12.6997 12.1973 12.8602 12.0867C13.0207 11.976 13.2186 11.9337 13.4103 11.9689C13.602 12.0042 13.7718 12.1142 13.8824 12.2746L14.7553 13.5421C14.8314 13.6524 14.8758 13.7814 14.8839 13.9151C14.8919 14.0488 14.8633 14.1821 14.801 14.3007C14.7388 14.4193 14.6453 14.5186 14.5307 14.5879C14.4161 14.6572 14.2847 14.6939 14.1507 14.6939V14.6939ZM11.2407 10.4694C11.1215 10.4696 11.0041 10.4408 10.8986 10.3855C10.7931 10.3301 10.7027 10.25 10.6351 10.1519L9.76216 8.88526C9.65154 8.72478 9.60919 8.52692 9.64445 8.33522C9.6797 8.14352 9.78966 7.97368 9.95015 7.86305C10.1106 7.75243 10.3085 7.71009 10.5002 7.74534C10.6919 7.78059 10.8617 7.89056 10.9723 8.05104L11.8453 9.31765C11.9213 9.42791 11.9658 9.55687 11.9738 9.69057C11.9819 9.82427 11.9532 9.95763 11.891 10.0762C11.8287 10.1948 11.7352 10.2941 11.6206 10.3635C11.506 10.4328 11.3746 10.4694 11.2407 10.4694V10.4694Z" fill="#63666A"/>
<path d="M8.3307 6.24628C8.21157 6.24646 8.09418 6.21764 7.98867 6.16231C7.88317 6.10698 7.79271 6.0268 7.72512 5.9287L7.30801 5.32312C7.2348 5.21679 7.19087 5.09306 7.18065 4.96438C7.17043 4.83569 7.19428 4.70658 7.24979 4.59003C7.30531 4.47348 7.39053 4.37361 7.49689 4.30045C7.60325 4.22729 7.727 4.18343 7.8557 4.17327L8.58843 4.11587C8.7818 4.10472 8.97199 4.1688 9.1192 4.29469C9.2664 4.42058 9.3592 4.59854 9.37818 4.7913C9.38833 4.91979 9.3645 5.04869 9.30909 5.16507C9.25367 5.28144 9.16861 5.38118 9.06245 5.45428C9.07023 5.55522 9.05709 5.65666 9.02386 5.75228C8.99063 5.8479 8.93802 5.93564 8.86932 6.00999C8.80063 6.08434 8.71732 6.14371 8.62462 6.18439C8.53193 6.22506 8.43183 6.24617 8.3306 6.24638L8.3307 6.24628Z" fill="#63666A"/>
<path d="M11.7621 5.34021C11.5717 5.34096 11.3883 5.26771 11.2508 5.13592C11.1133 5.00412 11.0324 4.82408 11.0251 4.63376C11.0178 4.44343 11.0846 4.25771 11.2116 4.11574C11.3386 3.97377 11.5157 3.88667 11.7057 3.87279L13.0417 3.76856C13.236 3.75333 13.4284 3.81594 13.5766 3.9426C13.7248 4.06925 13.8166 4.24959 13.8318 4.44394C13.8471 4.63828 13.7845 4.83072 13.6578 4.97891C13.5311 5.1271 13.3508 5.2189 13.1565 5.23412L11.8205 5.33835C11.8009 5.33924 11.7812 5.34021 11.7621 5.34021ZM16.2152 4.99197C16.0248 4.99258 15.8416 4.91924 15.7042 4.78741C15.5668 4.65557 15.486 4.47554 15.4787 4.28526C15.4715 4.09499 15.5384 3.90932 15.6653 3.76741C15.7923 3.6255 15.9694 3.53843 16.1593 3.52454L17.4958 3.42031C17.6891 3.4092 17.8792 3.4733 18.0263 3.5992C18.1734 3.7251 18.2661 3.90303 18.285 4.09574C18.2926 4.19198 18.2811 4.28877 18.2513 4.38058C18.2214 4.47238 18.1738 4.55741 18.111 4.63079C18.0483 4.70417 17.9717 4.76447 17.8857 4.80824C17.7997 4.85201 17.7058 4.87839 17.6096 4.88588L16.2734 4.99001C16.2538 4.99099 16.2342 4.99197 16.2152 4.99197V4.99197ZM20.6688 4.64373C20.4784 4.64447 20.2951 4.57123 20.1576 4.43943C20.0201 4.30763 19.9391 4.12759 19.9318 3.93727C19.9245 3.74694 19.9914 3.56122 20.1183 3.41925C20.2453 3.27729 20.4225 3.19018 20.6124 3.1763L21.9484 3.07207C22.0446 3.06453 22.1414 3.07602 22.2332 3.10588C22.325 3.13574 22.41 3.18339 22.4834 3.24611C22.5567 3.30882 22.617 3.38537 22.6608 3.47139C22.7046 3.55741 22.731 3.65122 22.7386 3.74745C22.7461 3.84368 22.7346 3.94045 22.7048 4.03224C22.6749 4.12403 22.6273 4.20904 22.5645 4.28242C22.5018 4.35579 22.4253 4.4161 22.3392 4.45989C22.2532 4.50368 22.1594 4.5301 22.0632 4.53764L20.7272 4.64186C20.7075 4.64284 20.6879 4.64373 20.6688 4.64373V4.64373Z" fill="#63666A"/>
<path d="M25.1221 4.29628C24.9316 4.29703 24.7483 4.22378 24.6108 4.09199C24.4733 3.96019 24.3924 3.78015 24.3851 3.58982C24.3777 3.3995 24.4446 3.21377 24.5716 3.07181C24.6986 2.92984 24.8757 2.84273 25.0657 2.82885L25.7984 2.77145C25.9919 2.75973 26.1824 2.8236 26.3297 2.94961C26.4771 3.07561 26.5697 3.25389 26.5882 3.44688C26.5957 3.54308 26.5843 3.63983 26.5545 3.73161C26.5246 3.82338 26.477 3.90839 26.4144 3.98176C26.3517 4.05513 26.2752 4.11544 26.1892 4.15924C26.1032 4.20304 26.0094 4.22947 25.9132 4.23702L25.1805 4.29442C25.1608 4.2954 25.1417 4.29628 25.1221 4.29628Z" fill="#63666A"/>
<path d="M26.2039 6.30614C27.827 6.30614 29.1427 4.9904 29.1427 3.36736C29.1427 1.74432 27.827 0.428589 26.2039 0.428589C24.5809 0.428589 23.2651 1.74432 23.2651 3.36736C23.2651 4.9904 24.5809 6.30614 26.2039 6.30614Z" fill="#63666A"/>
<path d="M3.79595 24.1837C5.41899 24.1837 6.73472 22.868 6.73472 21.2449C6.73472 19.6219 5.41899 18.3062 3.79595 18.3062C2.17291 18.3062 0.857178 19.6219 0.857178 21.2449C0.857178 22.868 2.17291 24.1837 3.79595 24.1837Z" fill="#63666A"/>
</svg>
