<svg width="28" height="28" viewBox="0 0 28 28" fill="none" xmlns="http://www.w3.org/2000/svg">
<rect width="28" height="28" rx="2" fill="#888b8d26"/>
<path d="M4.50959 21.7864C4.37135 21.7861 4.23789 21.7357 4.13396 21.6445C4.03003 21.5534 3.96267 21.4276 3.94436 21.2906C3.92606 21.1536 3.95805 21.0146 4.03441 20.8993C4.11078 20.7841 4.22633 20.7004 4.35965 20.6639L4.91097 20.5135C4.98337 20.4938 5.05895 20.4885 5.1334 20.498C5.20785 20.5074 5.2797 20.5315 5.34486 20.5687C5.41002 20.606 5.4672 20.6557 5.51315 20.715C5.55909 20.7744 5.5929 20.8422 5.61264 20.9146C5.63238 20.987 5.63767 21.0626 5.6282 21.137C5.61873 21.2114 5.59469 21.2833 5.55745 21.3485C5.52021 21.4136 5.4705 21.4708 5.41116 21.5167C5.35182 21.5627 5.28402 21.5965 5.21161 21.6162L4.6603 21.7666C4.61114 21.7797 4.56048 21.7864 4.50959 21.7864Z" fill="black"/>
<path d="M7.55912 20.957C7.42076 20.9569 7.28716 20.9065 7.18313 20.8153C7.07909 20.7241 7.01168 20.5982 6.99341 20.4611C6.97514 20.3239 7.00725 20.1848 7.08378 20.0695C7.16031 19.9543 7.27607 19.8707 7.40956 19.8343L8.48026 19.5434C8.62574 19.5059 8.78013 19.5272 8.91001 19.6027C9.03989 19.6782 9.13481 19.8018 9.17424 19.9468C9.21366 20.0918 9.19441 20.2464 9.12066 20.3773C9.0469 20.5082 8.92457 20.6048 8.78015 20.6461L7.70944 20.937C7.66042 20.9502 7.60989 20.9569 7.55912 20.957ZM11.1277 19.9868C10.9893 19.9867 10.8556 19.9364 10.7515 19.8452C10.6474 19.754 10.5799 19.6281 10.5616 19.491C10.5433 19.3538 10.5754 19.2146 10.6519 19.0993C10.7284 18.984 10.8442 18.9004 10.9777 18.864L12.0484 18.5724C12.1208 18.5526 12.1964 18.5473 12.2708 18.5568C12.3453 18.5663 12.4171 18.5903 12.4823 18.6276C12.5474 18.6648 12.6046 18.7145 12.6506 18.7739C12.6965 18.8332 12.7303 18.901 12.7501 18.9734C12.7698 19.0458 12.7751 19.1214 12.7656 19.1959C12.7561 19.2703 12.7321 19.3422 12.6948 19.4073C12.6576 19.4725 12.6079 19.5296 12.5485 19.5756C12.4892 19.6215 12.4214 19.6553 12.349 19.6751L11.2783 19.9667C11.2292 19.9799 11.1785 19.9867 11.1277 19.9868Z" fill="black"/>
<path d="M14.6961 19.0161C14.5742 19.0159 14.4556 18.9768 14.3575 18.9045C14.2594 18.8322 14.187 18.7304 14.1508 18.614C14.1146 18.4976 14.1166 18.3727 14.1564 18.2575C14.1962 18.1423 14.2717 18.0429 14.372 17.9736C14.3368 17.8435 14.3488 17.705 14.4058 17.5828C14.4628 17.4606 14.5612 17.3624 14.6836 17.3058C14.806 17.2491 14.9445 17.2376 15.0745 17.2732C15.2046 17.3088 15.3179 17.3893 15.3944 17.5004L15.7184 17.9714C15.7702 18.0466 15.8033 18.1331 15.8147 18.2237C15.8262 18.3143 15.8158 18.4063 15.7843 18.492C15.7529 18.5777 15.7013 18.6547 15.634 18.7163C15.5666 18.778 15.4855 18.8226 15.3973 18.8464L14.8458 18.9958C14.797 19.009 14.7467 19.0159 14.6961 19.0161Z" fill="black"/>
<path d="M13.3395 16.0953C13.2469 16.0954 13.1555 16.073 13.0735 16.03C12.9914 15.9869 12.9211 15.9246 12.8685 15.8483L12.1896 14.8625C12.1035 14.7376 12.0706 14.5837 12.098 14.4346C12.1254 14.2855 12.211 14.1534 12.3358 14.0674C12.4606 13.9814 12.6145 13.9484 12.7636 13.9759C12.9127 14.0033 13.0448 14.0888 13.1308 14.2136L13.8098 15.1994C13.8689 15.2852 13.9035 15.3855 13.9097 15.4895C13.916 15.5935 13.8937 15.6972 13.8453 15.7894C13.7969 15.8817 13.7242 15.9589 13.635 16.0128C13.5459 16.0668 13.4437 16.0953 13.3395 16.0953ZM11.0761 12.8096C10.9835 12.8097 10.8922 12.7873 10.8101 12.7443C10.728 12.7012 10.6577 12.6389 10.6051 12.5626L9.92618 11.5774C9.84014 11.4526 9.80721 11.2987 9.83463 11.1496C9.86204 11.0005 9.94757 10.8684 10.0724 10.7824C10.1972 10.6963 10.3511 10.6634 10.5002 10.6908C10.6493 10.7182 10.7814 10.8038 10.8674 10.9286L11.5464 11.9137C11.6055 11.9995 11.6401 12.0998 11.6464 12.2038C11.6526 12.3078 11.6303 12.4115 11.5819 12.5037C11.5335 12.596 11.4608 12.6732 11.3716 12.7271C11.2825 12.781 11.1803 12.8095 11.0761 12.8096Z" fill="black"/>
<path d="M8.81278 9.5249C8.72012 9.52504 8.62882 9.50262 8.54676 9.45959C8.4647 9.41655 8.39434 9.35419 8.34177 9.27789L8.01735 8.80688C7.96041 8.72419 7.92625 8.62795 7.9183 8.52786C7.91035 8.42777 7.9289 8.32735 7.97207 8.2367C8.01525 8.14606 8.08154 8.06838 8.16426 8.01147C8.24699 7.95457 8.34324 7.92046 8.44333 7.91256L9.01324 7.86791C9.16364 7.85924 9.31156 7.90908 9.42605 8.00699C9.54054 8.10491 9.61272 8.24332 9.62748 8.39325C9.63538 8.49318 9.61685 8.59344 9.57375 8.68395C9.53065 8.77446 9.46449 8.85204 9.38192 8.9089C9.38797 8.9874 9.37775 9.06631 9.35191 9.14068C9.32606 9.21505 9.28514 9.28329 9.23171 9.34111C9.17828 9.39894 9.11349 9.44512 9.04139 9.47676C8.96929 9.5084 8.89144 9.52481 8.8127 9.52498L8.81278 9.5249Z" fill="black"/>
<path d="M11.4816 8.82006C11.3335 8.82064 11.1909 8.76367 11.084 8.66116C10.977 8.55865 10.9141 8.41862 10.9084 8.27059C10.9027 8.12256 10.9547 7.97811 11.0535 7.86769C11.1522 7.75727 11.29 7.68952 11.4377 7.67873L12.4768 7.59766C12.628 7.58582 12.7777 7.63451 12.8929 7.73302C13.0082 7.83153 13.0796 7.9718 13.0914 8.12295C13.1033 8.27411 13.0546 8.42378 12.9561 8.53904C12.8575 8.6543 12.7173 8.7257 12.5661 8.73754L11.527 8.81861C11.5118 8.8193 11.4965 8.82006 11.4816 8.82006ZM14.9452 8.5492C14.7971 8.54968 14.6546 8.49264 14.5477 8.3901C14.4408 8.28756 14.378 8.14754 14.3723 7.99954C14.3667 7.85155 14.4187 7.70714 14.5175 7.59677C14.6162 7.48639 14.754 7.41867 14.9017 7.40787L15.9411 7.3268C16.0915 7.31816 16.2394 7.36801 16.3538 7.46593C16.4682 7.56386 16.5403 7.70225 16.555 7.85214C16.5609 7.92699 16.552 8.00227 16.5288 8.07367C16.5055 8.14508 16.4685 8.21121 16.4197 8.26828C16.3709 8.32535 16.3113 8.37225 16.2444 8.4063C16.1775 8.44034 16.1045 8.46086 16.0297 8.46669L14.9904 8.54768C14.9752 8.54844 14.9599 8.5492 14.9452 8.5492ZM18.4091 8.27835C18.261 8.27893 18.1184 8.22196 18.0114 8.11945C17.9045 8.01694 17.8415 7.87691 17.8358 7.72888C17.8301 7.58085 17.8822 7.43639 17.9809 7.32598C18.0797 7.21556 18.2175 7.14781 18.3652 7.13701L19.4043 7.05595C19.4791 7.05008 19.5544 7.05902 19.6258 7.08224C19.6972 7.10547 19.7633 7.14253 19.8204 7.19131C19.8774 7.24009 19.9243 7.29963 19.9584 7.36653C19.9925 7.43344 20.013 7.50639 20.0189 7.58124C20.0247 7.65609 20.0158 7.73135 19.9926 7.80275C19.9694 7.87414 19.9323 7.94026 19.8835 7.99733C19.8347 8.0544 19.7752 8.1013 19.7083 8.13536C19.6414 8.16942 19.5684 8.18997 19.4936 8.19583L18.4545 8.2769C18.4392 8.27766 18.4239 8.27835 18.4091 8.27835Z" fill="black"/>
<path d="M21.8726 8.00809C21.7245 8.00867 21.5819 7.9517 21.475 7.84919C21.368 7.74668 21.3051 7.60665 21.2994 7.45862C21.2937 7.31059 21.3457 7.16614 21.4445 7.05572C21.5432 6.9453 21.681 6.87755 21.8287 6.86676L22.3986 6.82211C22.5491 6.81299 22.6973 6.86267 22.8119 6.96068C22.9265 7.05868 22.9985 7.19734 23.0129 7.34744C23.0188 7.42227 23.0099 7.49752 22.9867 7.5689C22.9635 7.64028 22.9265 7.70639 22.8777 7.76346C22.829 7.82053 22.7695 7.86744 22.7026 7.9015C22.6357 7.93557 22.5628 7.95612 22.4879 7.96199L21.918 8.00664C21.9027 8.0074 21.8879 8.00809 21.8726 8.00809Z" fill="black"/>
<path d="M22.7143 9.57143C23.9767 9.57143 25 8.54808 25 7.28571C25 6.02335 23.9767 5 22.7143 5C21.4519 5 20.4286 6.02335 20.4286 7.28571C20.4286 8.54808 21.4519 9.57143 22.7143 9.57143Z" fill="black"/>
<path d="M5.28571 23.4762C6.54808 23.4762 7.57142 22.4529 7.57142 21.1905C7.57142 19.9281 6.54808 18.9048 5.28571 18.9048C4.02335 18.9048 3 19.9281 3 21.1905C3 22.4529 4.02335 23.4762 5.28571 23.4762Z" fill="black"/>
</svg>
