<svg xmlns="http://www.w3.org/2000/svg" width="40" height="40" viewBox="0 0 40 40"><title>tracks_off</title><g id="Layer_2" data-name="Layer 2"><g id="Layer_1-2" data-name="Layer 1"><rect x="0.4999" y="0.5" width="39" height="39" rx="2.5" ry="2.5" fill="#fff"/><path d="M37,1a2.0023,2.0023,0,0,1,2,2V37a2.0023,2.0023,0,0,1-2,2H3a2.0023,2.0023,0,0,1-2-2V3A2.0023,2.0023,0,0,1,3,1H37m0-1H3A3.0088,3.0088,0,0,0,0,3V37a3.0088,3.0088,0,0,0,3,3H37a3.0088,3.0088,0,0,0,3-3V3a3.0088,3.0088,0,0,0-3-3Z" fill="#90908c"/><path d="M7.5438,29.4033A.75.75,0,0,1,7.347,27.93l.7236-.1973A.75.75,0,1,1,8.4652,29.18l-.7236.1973A.7674.7674,0,0,1,7.5438,29.4033Z" fill="#90908c"/><path d="M11.5463,28.3145a.75.75,0,0,1-.1963-1.4736l1.4053-.3818a.75.75,0,0,1,.3936,1.4473l-1.4053.3818A.7666.7666,0,0,1,11.5463,28.3145ZM16.23,27.041a.75.75,0,0,1-.1968-1.4736l1.4053-.3828a.75.75,0,1,1,.3945,1.4473l-1.4053.3828A.7674.7674,0,0,1,16.23,27.041Z" fill="#90908c"/><path d="M20.9135,25.7666a.7505.7505,0,0,1-.4253-1.3682.75.75,0,0,1,1.3418-.6211l.4253.6182a.7491.7491,0,0,1-.4214,1.1484L21.11,25.74A.7629.7629,0,0,1,20.9135,25.7666Z" fill="#90908c"/><path d="M19.1332,21.9336a.7494.7494,0,0,1-.6182-.3242l-.8911-1.2939a.75.75,0,1,1,1.2354-.8516l.8911,1.2939a.75.75,0,0,1-.6172,1.1758Zm-2.9707-4.3125a.7494.7494,0,0,1-.6182-.3242l-.8911-1.293a.75.75,0,0,1,1.2354-.8516l.8911,1.293a.75.75,0,0,1-.6172,1.1758Z" fill="#90908c"/><path d="M13.1918,13.31a.7494.7494,0,0,1-.6182-.3242l-.4258-.6182a.7505.7505,0,0,1,.5591-1.1738l.748-.0586a.7658.7658,0,0,1,.8062.6895.75.75,0,0,1-.3223.6768.7509.7509,0,0,1-.7471.8086Z" fill="#90908c"/><path d="M16.6947,12.3848a.75.75,0,0,1-.0576-1.498l1.3638-.1064a.75.75,0,0,1,.1172,1.4961l-1.3638.1064C16.7343,12.3838,16.7142,12.3848,16.6947,12.3848Zm4.5459-.3555a.75.75,0,0,1-.0571-1.498l1.3643-.1064a.7654.7654,0,0,1,.8057.6895.75.75,0,0,1-.6895.8066L21.3,12.0273C21.28,12.0283,21.26,12.0293,21.2406,12.0293Zm4.5464-.3555a.75.75,0,0,1-.0576-1.498l1.3638-.1064a.75.75,0,0,1,.1172,1.4961l-1.3638.1064C25.8265,11.6729,25.8065,11.6738,25.787,11.6738Z" fill="#90908c"/><path d="M30.3329,11.3193a.75.75,0,0,1-.0576-1.498l.748-.0586a.7635.7635,0,0,1,.8062.6895.75.75,0,0,1-.689.8066l-.748.0586C30.3724,11.3184,30.3529,11.3193,30.3329,11.3193Z" fill="#90908c"/><circle cx="31.4375" cy="10.3711" r="3" fill="#90908c"/><circle cx="8.5625" cy="28.6211" r="3" fill="#90908c"/></g></g></svg>