<svg xmlns="http://www.w3.org/2000/svg" width="40" height="40" viewBox="0 0 40 40"><title>Tracks Pinned</title><g id="Layer_2" data-name="Layer 2"><g id="Layer_1-2" data-name="Layer 1"><rect width="40" height="40" rx="3" ry="3" fill="#7ed321"/><path d="M10.1893,29.4723a1,1,0,0,1-.2646-1.9639L20.016,24.733,11.9418,13.0123a1,1,0,0,1,.7461-1.5645l18.3164-1.4307a1,1,0,1,1,.1553,1.9941L14.5736,13.3073l7.8877,11.4492a1,1,0,0,1-.5586,1.5313L10.455,29.4362A1,1,0,0,1,10.1893,29.4723Z" fill="#fff"/><circle cx="31.4375" cy="10.875" r="3" fill="#fff"/><circle cx="8.5625" cy="29.125" r="3" fill="#fff"/></g></g></svg>