<?xml version="1.0" encoding="UTF-8"?>
<svg width="19px" height="13px" viewBox="0 0 19 13" version="1.1" xmlns="http://www.w3.org/2000/svg" xmlns:xlink="http://www.w3.org/1999/xlink">
    <!-- Generator: Sketch 61.2 (89653) - https://sketch.com -->
    <title>chevron</title>
    <desc>Created with Sketch.</desc>
    <g id="Symbols" stroke="none" stroke-width="1" fill="none" fill-rule="evenodd">
        <g id="220-add-report-modal-base" transform="translate(-592.000000, -18.000000)" fill="#FFFFFF">
            <g id="PATROL-WINDOW">
                <g id="TITLEBAR">
                    <g id="chevron" transform="translate(601.500000, 24.500000) rotate(90.000000) translate(-601.500000, -24.500000) translate(595.000000, 15.000000)">
                        <path d="M1.10647646,6.79496209 C1.36391559,7.01365826 1.79845275,7.01365826 2.05608501,6.79496209 L6.01520137,3.37703468 C6.2726405,3.15817445 6.70717766,3.15817445 6.96461679,3.37703468 L10.9077036,6.83597787 C11.1651427,7.05467404 11.5996799,7.05467404 11.8573121,6.83597787 L12.8069207,6.02927941 C13.0643598,5.81058324 13.0643598,5.44144118 12.8069207,5.22274501 L6.96461679,0.164022125 C6.70717766,-0.0546740417 6.2726405,-0.0546740417 6.01520137,0.164022125 L0.156867916,5.20896371 C-0.0522893052,5.42782394 -0.0522893052,5.75595022 0.156867916,5.98826363 L1.10647646,6.79496209 Z" id="Fill-1"></path>
                        <path d="M6.96472026,6.16402213 C6.70708418,5.94532596 6.27273369,5.94532596 6.01509761,6.16402213 L0.156870246,11.2089637 C-0.052290082,11.3866441 -0.052290082,11.7557862 0.156870246,11.9882636 L1.1064929,12.7949621 C1.36393585,13.0136583 1.79847947,13.0136583 2.05592242,12.7949621 L6.01509761,9.37687061 C6.27273369,9.15817445 6.70708418,9.15817445 6.96472026,9.37687061 L10.9076725,12.8359779 C11.1653086,13.054674 11.5998522,13.054674 11.8572951,12.8359779 L12.8069178,12.0292794 C13.0643607,11.8105832 13.0643607,11.4414412 12.8069178,11.2225809 L6.96472026,6.16402213 Z" id="Fill-4"></path>
                        <path d="M6.96472026,12.1640221 C6.70708418,11.945326 6.27273369,11.945326 6.01509761,12.1640221 L0.156870246,17.2089637 C-0.052290082,17.3866441 -0.052290082,17.7557862 0.156870246,17.9882636 L1.1064929,18.7949621 C1.36393585,19.0136583 1.79847947,19.0136583 2.05592242,18.7949621 L6.01509761,15.3768706 C6.27273369,15.1581744 6.70708418,15.1581744 6.96472026,15.3768706 L10.9076725,18.8359779 C11.1653086,19.054674 11.5998522,19.054674 11.8572951,18.8359779 L12.8069178,18.0292794 C13.0643607,17.8105832 13.0643607,17.4414412 12.8069178,17.2225809 L6.96472026,12.1640221 Z" id="Fill-4"></path>
                    </g>
                </g>
            </g>
        </g>
    </g>
</svg>