<svg xmlns="http://www.w3.org/2000/svg" viewBox="0 0 519.65 228.32"><defs><style>.cls-1{isolation:isolate;}.cls-2{fill:#6dc4bc;}.cls-3,.cls-4{fill:#5d4b3f;}.cls-4,.cls-5{mix-blend-mode:multiply;}</style></defs><title>EarthRanger logo</title><g class="cls-1"><g id="Layer_2" data-name="Layer 2"><g id="Layer_1-2" data-name="Layer 1"><path class="cls-2" d="M0,227.46v-74.8H32.81v10.9H12.4v20.52H29.49V195H12.4v21.58H33.13v10.9Z"/><path class="cls-2" d="M67.86,210.79H54.18l-2.67,16.67h-12l13.89-74.8H69l14.11,74.8H70.53Zm-1.61-10.26L61,167.3l-5.24,33.23Z"/><path class="cls-2" d="M119.58,227.46l-9.52-29.81h-6.19v29.81H91.47v-74.8h19.34c11.33,0,18.81,4.49,18.81,15.81v13.36c0,7.16-3,11.65-8.12,13.89l10.69,31.74ZM103.87,187h6.52c4.06,0,6.83-1.49,6.83-6.84V170.4c0-5.35-2.77-6.84-6.83-6.84h-6.52Z"/><path class="cls-2" d="M174.29,163.56H161.78v63.9H149.39v-63.9H136.88v-10.9h37.41Z"/><path class="cls-2" d="M195.23,152.66v31.2h14.21v-31.2h12.4v74.8h-12.4V195H195.23v32.48h-12.4v-74.8Z"/><path class="cls-2" d="M262.76,227.46l-9.51-29.81h-6.2v29.81H234.66v-74.8H254c11.33,0,18.81,4.49,18.81,15.81v13.36c0,7.16-3,11.65-8.12,13.89l10.68,31.74ZM247.05,187h6.52c4.06,0,6.84-1.49,6.84-6.84V170.4c0-5.35-2.78-6.84-6.84-6.84h-6.52Z"/><path class="cls-2" d="M308.82,210.79H295.14l-2.67,16.67h-12l13.89-74.8H310l14.11,74.8H311.49Zm-1.61-10.26L302,167.3l-5.24,33.23Z"/><path class="cls-2" d="M332.43,227.46v-74.8h12.4l15.71,46.27V152.66h11.32v74.8H360.11l-16.35-48.62v48.62Z"/><path class="cls-2" d="M422.73,212.5c0,11.54-7.48,15.82-18.81,15.82h-.85c-11.33,0-18.81-4.17-18.81-15.82V167.62c0-11.11,7.48-15.82,18.81-15.82h.85c11.33,0,18.81,4.71,18.81,15.82v10.69h-12.4v-8.77c0-5.34-2.78-6.84-6.84-6.84s-6.84,1.5-6.84,6.84v41c0,5.34,2.78,6.84,6.84,6.84s6.84-1.5,6.84-6.84V199.47h-7.26V189h19.66Z"/><path class="cls-2" d="M434.91,227.46v-74.8h32.8v10.9H447.3v20.52h17.1V195H447.3v21.58H468v10.9Z"/><path class="cls-2" d="M507,227.46l-9.51-29.81h-6.2v29.81h-12.4v-74.8h19.34c11.33,0,18.81,4.49,18.81,15.81v13.36c0,7.16-3,11.65-8.12,13.89l10.69,31.74ZM491.33,187h6.52c4.06,0,6.84-1.49,6.84-6.84V170.4c0-5.35-2.78-6.84-6.84-6.84h-6.52Z"/><path class="cls-3" d="M289.5,71.3v2.08c0,7-1.29,14.82-10.91,20.47L251.29,111,222.93,93.84c-9.88-6.15-9.88-16.55-9.88-20.46v-2Z"/><polygon class="cls-4" points="251.28 0 211.22 6.57 213.05 29.57 289.5 29.57 291.33 6.57 251.28 0"/><g class="cls-5"><polygon class="cls-3" points="280.38 35.7 213.05 35.77 213.05 64.25 280.38 64.25 280.38 35.7"/></g></g></g></g></svg>