<svg xmlns="http://www.w3.org/2000/svg"><defs><style>.cls-1{fill:#fff;}</style><style>.cls-1{fill:#FFF;}.cls-2{fill:#FFF;}</style><style>.cls-1{isolation:isolate;}.cls-2{fill:#6dc4bc;}.cls-3,.cls-4{fill:#5d4b3f;}.cls-4,.cls-5{mix-blend-mode:multiply;}</style></defs><symbol viewBox="0 0 594.21 103.3" id="earth-ranger-logo-horizontal-white"><title>EarthRanger logo</title><g id="earth-ranger-logo-horizontal-white-Layer_2" data-name="Layer 2"><g id="earth-ranger-logo-horizontal-white-Layer_1-2" data-name="Layer 1"><path class="cls-1" d="M110.56,83.15V13.52H141.1V23.67h-19v19.1H138V52.91H122.1V73h19.29V83.15Z"/><path class="cls-1" d="M173.72,67.63H161L158.5,83.15H147.36l12.93-69.63h14.52l13.13,69.63H176.2Zm-1.5-9.55-4.87-30.93-4.87,30.93Z"/><path class="cls-1" d="M221.85,83.15,213,55.4h-5.77V83.15H195.69V13.52h18c10.54,0,17.5,4.18,17.5,14.72V40.68c0,6.66-2.78,10.84-7.56,12.93l10,29.54Zm-14.62-37.7h6.07c3.78,0,6.36-1.39,6.36-6.36V30c0-5-2.58-6.36-6.36-6.36h-6.07Z"/><path class="cls-1" d="M272.77,23.67H261.14V83.15H249.6V23.67H238V13.52h34.81Z"/><path class="cls-1" d="M292.26,13.52V42.57h13.23v-29H317V83.15H305.49V52.91H292.26V83.15H280.73V13.52Z"/><path class="cls-1" d="M355.12,83.15,346.27,55.4H340.5V83.15H329V13.52h18c10.54,0,17.5,4.18,17.5,14.72V40.68c0,6.66-2.78,10.84-7.56,12.93l9.95,29.54ZM340.5,45.45h6.07c3.78,0,6.36-1.39,6.36-6.36V30c0-5-2.58-6.36-6.36-6.36H340.5Z"/><path class="cls-1" d="M398,67.63H385.25l-2.48,15.52H371.63l12.93-69.63h14.52l13.13,69.63H400.47Zm-1.5-9.55-4.87-30.93-4.87,30.93Z"/><path class="cls-1" d="M420,83.15V13.52H431.5l14.62,43.07V13.52h10.55V83.15H445.73L430.51,37.89V83.15Z"/><path class="cls-1" d="M504,69.22c0,10.74-7,14.72-17.51,14.72h-.79c-10.55,0-17.51-3.88-17.51-14.72V27.45c0-10.35,7-14.72,17.51-14.72h.79C497,12.73,504,17.1,504,27.45v9.94H492.47V29.24c0-5-2.59-6.37-6.37-6.37s-6.36,1.4-6.36,6.37V67.43c0,5,2.58,6.37,6.36,6.37s6.37-1.39,6.37-6.37V57.09h-6.76V47.34H504Z"/><path class="cls-1" d="M515.34,83.15V13.52h30.54V23.67h-19v19.1h15.91V52.91H526.88V73h19.3V83.15Z"/><path class="cls-1" d="M582.48,83.15,573.62,55.4h-5.76V83.15H556.32V13.52h18c10.54,0,17.51,4.18,17.51,14.72V40.68c0,6.66-2.79,10.84-7.56,12.93l9.94,29.54Zm-14.62-37.7h6.06c3.78,0,6.37-1.39,6.37-6.36V30c0-5-2.59-6.36-6.37-6.36h-6.06Z"/><path class="cls-1" d="M72.86,66.36V68.3c0,6.47-1.21,13.79-10.16,19l-25.41,16-26.39-16c-9.2-5.73-9.2-15.4-9.2-19V66.43Z"/><polygon class="cls-1" points="37.28 0 0 6.11 1.7 27.52 72.86 27.52 74.56 6.11 37.28 0"/><polygon class="cls-1" points="64.36 33.23 1.7 33.3 1.7 59.8 64.36 59.8 64.36 33.23"/></g></g></symbol><symbol viewBox="0 0 594.21 103.3" id="earth-ranger-logo-horizontal"><title>EarthRanger logo</title><g id="earth-ranger-logo-horizontal-Layer_2" data-name="Layer 2"><g id="earth-ranger-logo-horizontal-Layer_1-2" data-name="Layer 1"><path class="cls-1" d="M110.56,83.15V13.52H141.1V23.67h-19v19.1H138V52.91H122.1V73h19.29V83.15Z"/><path class="cls-1" d="M173.72,67.63H161L158.5,83.15H147.36l12.93-69.63h14.52l13.13,69.63H176.2Zm-1.5-9.55-4.87-30.93-4.87,30.93Z"/><path class="cls-1" d="M221.85,83.15,213,55.4h-5.77V83.15H195.69V13.52h18c10.54,0,17.5,4.18,17.5,14.72V40.68c0,6.66-2.78,10.84-7.56,12.93l10,29.54Zm-14.62-37.7h6.07c3.78,0,6.36-1.39,6.36-6.36V30c0-5-2.58-6.36-6.36-6.36h-6.07Z"/><path class="cls-1" d="M272.77,23.67H261.14V83.15H249.6V23.67H238V13.52h34.81Z"/><path class="cls-1" d="M292.26,13.52V42.57h13.23v-29H317V83.15H305.49V52.91H292.26V83.15H280.73V13.52Z"/><path class="cls-1" d="M355.12,83.15,346.27,55.4H340.5V83.15H329V13.52h18c10.54,0,17.5,4.18,17.5,14.72V40.68c0,6.66-2.78,10.84-7.56,12.93l9.95,29.54ZM340.5,45.45h6.07c3.78,0,6.36-1.39,6.36-6.36V30c0-5-2.58-6.36-6.36-6.36H340.5Z"/><path class="cls-1" d="M398,67.63H385.25l-2.48,15.52H371.63l12.93-69.63h14.52l13.13,69.63H400.47Zm-1.5-9.55-4.87-30.93-4.87,30.93Z"/><path class="cls-1" d="M420,83.15V13.52H431.5l14.62,43.07V13.52h10.55V83.15H445.73L430.51,37.89V83.15Z"/><path class="cls-1" d="M504,69.22c0,10.74-7,14.72-17.51,14.72h-.79c-10.55,0-17.51-3.88-17.51-14.72V27.45c0-10.35,7-14.72,17.51-14.72h.79C497,12.73,504,17.1,504,27.45v9.94H492.47V29.24c0-5-2.59-6.37-6.37-6.37s-6.36,1.4-6.36,6.37V67.43c0,5,2.58,6.37,6.36,6.37s6.37-1.39,6.37-6.37V57.09h-6.76V47.34H504Z"/><path class="cls-1" d="M515.34,83.15V13.52h30.54V23.67h-19v19.1h15.91V52.91H526.88V73h19.3V83.15Z"/><path class="cls-1" d="M582.48,83.15,573.62,55.4h-5.76V83.15H556.32V13.52h18c10.54,0,17.51,4.18,17.51,14.72V40.68c0,6.66-2.79,10.84-7.56,12.93l9.94,29.54Zm-14.62-37.7h6.06c3.78,0,6.37-1.39,6.37-6.36V30c0-5-2.59-6.36-6.37-6.36h-6.06Z"/><path class="cls-2" d="M72.86,66.36V68.3c0,6.47-1.21,13.79-10.16,19l-25.41,16-26.39-16c-9.2-5.73-9.2-15.4-9.2-19V66.43Z"/><polygon class="cls-2" points="37.28 0 0 6.11 1.7 27.52 72.86 27.52 74.56 6.11 37.28 0"/><polygon class="cls-2" points="64.36 33.23 1.7 33.3 1.7 59.8 64.36 59.8 64.36 33.23"/></g></g></symbol><symbol viewBox="0 0 519.65 228.32" id="earth-ranger-logo-vertical"><title>EarthRanger logo</title><g class="cls-1"><g id="earth-ranger-logo-vertical-Layer_2" data-name="Layer 2"><g id="earth-ranger-logo-vertical-Layer_1-2" data-name="Layer 1"><path class="cls-2" d="M0,227.46v-74.8H32.81v10.9H12.4v20.52H29.49V195H12.4v21.58H33.13v10.9Z"/><path class="cls-2" d="M67.86,210.79H54.18l-2.67,16.67h-12l13.89-74.8H69l14.11,74.8H70.53Zm-1.61-10.26L61,167.3l-5.24,33.23Z"/><path class="cls-2" d="M119.58,227.46l-9.52-29.81h-6.19v29.81H91.47v-74.8h19.34c11.33,0,18.81,4.49,18.81,15.81v13.36c0,7.16-3,11.65-8.12,13.89l10.69,31.74ZM103.87,187h6.52c4.06,0,6.83-1.49,6.83-6.84V170.4c0-5.35-2.77-6.84-6.83-6.84h-6.52Z"/><path class="cls-2" d="M174.29,163.56H161.78v63.9H149.39v-63.9H136.88v-10.9h37.41Z"/><path class="cls-2" d="M195.23,152.66v31.2h14.21v-31.2h12.4v74.8h-12.4V195H195.23v32.48h-12.4v-74.8Z"/><path class="cls-2" d="M262.76,227.46l-9.51-29.81h-6.2v29.81H234.66v-74.8H254c11.33,0,18.81,4.49,18.81,15.81v13.36c0,7.16-3,11.65-8.12,13.89l10.68,31.74ZM247.05,187h6.52c4.06,0,6.84-1.49,6.84-6.84V170.4c0-5.35-2.78-6.84-6.84-6.84h-6.52Z"/><path class="cls-2" d="M308.82,210.79H295.14l-2.67,16.67h-12l13.89-74.8H310l14.11,74.8H311.49Zm-1.61-10.26L302,167.3l-5.24,33.23Z"/><path class="cls-2" d="M332.43,227.46v-74.8h12.4l15.71,46.27V152.66h11.32v74.8H360.11l-16.35-48.62v48.62Z"/><path class="cls-2" d="M422.73,212.5c0,11.54-7.48,15.82-18.81,15.82h-.85c-11.33,0-18.81-4.17-18.81-15.82V167.62c0-11.11,7.48-15.82,18.81-15.82h.85c11.33,0,18.81,4.71,18.81,15.82v10.69h-12.4v-8.77c0-5.34-2.78-6.84-6.84-6.84s-6.84,1.5-6.84,6.84v41c0,5.34,2.78,6.84,6.84,6.84s6.84-1.5,6.84-6.84V199.47h-7.26V189h19.66Z"/><path class="cls-2" d="M434.91,227.46v-74.8h32.8v10.9H447.3v20.52h17.1V195H447.3v21.58H468v10.9Z"/><path class="cls-2" d="M507,227.46l-9.51-29.81h-6.2v29.81h-12.4v-74.8h19.34c11.33,0,18.81,4.49,18.81,15.81v13.36c0,7.16-3,11.65-8.12,13.89l10.69,31.74ZM491.33,187h6.52c4.06,0,6.84-1.49,6.84-6.84V170.4c0-5.35-2.78-6.84-6.84-6.84h-6.52Z"/><path class="cls-3" d="M289.5,71.3v2.08c0,7-1.29,14.82-10.91,20.47L251.29,111,222.93,93.84c-9.88-6.15-9.88-16.55-9.88-20.46v-2Z"/><polygon class="cls-4" points="251.28 0 211.22 6.57 213.05 29.57 289.5 29.57 291.33 6.57 251.28 0"/><g class="cls-5"><polygon class="cls-3" points="280.38 35.7 213.05 35.77 213.05 64.25 280.38 64.25 280.38 35.7"/></g></g></g></g></symbol></svg>