<svg width="24" height="15" viewBox="0 0 24 15" fill="none" xmlns="http://www.w3.org/2000/svg">
<path d="M3.91145 10.7437C3.52514 10.7437 3.14751 10.8583 2.82631 11.0729C2.5051 11.2875 2.25476 11.5926 2.10693 11.9495C1.95909 12.3064 1.92041 12.6991 1.99578 13.078C2.07114 13.4569 2.25717 13.8049 2.53033 14.078C2.80349 14.3512 3.15151 14.5372 3.5304 14.6126C3.90928 14.688 4.302 14.6493 4.6589 14.5015C5.0158 14.3536 5.32085 14.1033 5.53547 13.7821C5.75009 13.4609 5.86465 13.0832 5.86465 12.6969C5.86465 12.1789 5.65886 11.6821 5.29257 11.3158C4.92627 10.9495 4.42947 10.7437 3.91145 10.7437ZM3.91145 13.6508C3.72278 13.6508 3.53836 13.5949 3.38149 13.4901C3.22463 13.3852 3.10237 13.2363 3.03017 13.062C2.95797 12.8877 2.93908 12.6959 2.97589 12.5108C3.01269 12.3258 3.10354 12.1558 3.23694 12.0224C3.37035 11.889 3.54032 11.7982 3.72535 11.7614C3.91039 11.7246 4.10218 11.7435 4.27648 11.8157C4.45078 11.8878 4.59976 12.0101 4.70458 12.167C4.80939 12.3238 4.86533 12.5083 4.86533 12.6969C4.86135 12.9468 4.75893 13.185 4.58033 13.3599C4.40173 13.5347 4.16137 13.632 3.91145 13.6306V13.6508ZM19.7187 5.65128H19.0626C18.9149 5.65261 18.7737 5.71222 18.6697 5.81714C18.5658 5.92206 18.5074 6.06379 18.5074 6.2115V8.99746C18.5074 9.14517 18.5658 9.2869 18.6697 9.39182C18.7737 9.49674 18.9149 9.55635 19.0626 9.55768H19.7187C19.8673 9.55768 20.0098 9.49866 20.1149 9.39359C20.2199 9.28853 20.279 9.14604 20.279 8.99746V6.2115C20.279 6.06292 20.2199 5.92043 20.1149 5.81536C20.0098 5.7103 19.8673 5.65128 19.7187 5.65128ZM19.9358 9.96144H18.1138V5.45949C18.1144 5.31217 18.0859 5.16617 18.0299 5.02993C17.9738 4.89369 17.8913 4.76991 17.7871 4.66573C17.6829 4.56156 17.5591 4.47905 17.4229 4.42298C17.2867 4.36691 17.1407 4.33838 16.9933 4.33905H9.2512C9.04137 4.32972 8.83287 4.37676 8.64737 4.47528C8.46187 4.5738 8.30614 4.7202 8.19637 4.89927L6.47029 7.32689H1.82198C1.58505 7.32689 1.35783 7.42101 1.1903 7.58854C1.02277 7.75607 0.928653 7.98329 0.928653 8.22022V9.95135H0.333104C0.244298 9.95267 0.159579 9.98888 0.0972511 10.0522C0.034923 10.1154 -9.89102e-06 10.2007 2.10075e-09 10.2895V11.1727C-9.89102e-06 11.2615 0.034923 11.3468 0.0972511 11.4101C0.159579 11.4733 0.244298 11.5096 0.333104 11.5109H1.6201V10.0977C1.61943 10.0244 1.6333 9.95165 1.6609 9.88371C1.6885 9.81576 1.72929 9.75397 1.78091 9.70188C1.83253 9.64979 1.89395 9.60844 1.96164 9.58023C2.02933 9.55201 2.10194 9.53749 2.17527 9.53749H5.04703C5.218 9.54615 5.38294 9.60348 5.52243 9.70273C5.66192 9.80198 5.77014 9.93902 5.83436 10.0977L6.33907 11.3948C6.35553 11.4371 6.36738 11.4811 6.37439 11.526H12.6176L12.9961 10.5166C13.0406 10.3545 13.1375 10.2116 13.2717 10.1103C13.4059 10.0089 13.5699 9.95484 13.738 9.95639H16.3372C16.5052 9.95569 16.6687 10.0101 16.8027 10.1113C16.9367 10.2125 17.0338 10.3549 17.0791 10.5166L17.4577 11.526H19.9358C20.0254 11.526 20.1115 11.4904 20.1749 11.427C20.2383 11.3636 20.2739 11.2776 20.2739 11.1879V10.2945C20.2739 10.2504 20.2651 10.2066 20.2481 10.1659C20.231 10.1251 20.206 10.0882 20.1746 10.0572C20.1431 10.0262 20.1058 10.0018 20.0648 9.98533C20.0238 9.96889 19.9799 9.96077 19.9358 9.96144ZM7.57054 6.98369L8.72126 5.3636C8.89286 5.14153 8.95847 5.12134 9.14521 5.12134H10.8612C10.95 5.12267 11.0347 5.15888 11.0971 5.22215C11.1594 5.28542 11.1943 5.37068 11.1943 5.45949V6.9736C11.1943 7.06195 11.1592 7.14667 11.0967 7.20914C11.0343 7.27161 10.9495 7.3067 10.8612 7.3067H7.69167C7.50493 7.3168 7.45951 7.17043 7.57054 6.98369ZM11.2094 8.79558C11.161 8.7976 11.1126 8.78866 11.0681 8.76944C11.0235 8.75022 10.9839 8.7212 10.952 8.68454H10.1445C10.0856 8.68454 10.0291 8.66115 9.9875 8.6195C9.94585 8.57785 9.92245 8.52137 9.92245 8.46247C9.92245 8.40358 9.94585 8.34709 9.9875 8.30545C10.0291 8.2638 10.0856 8.2404 10.1445 8.2404H10.952C10.9829 8.20224 11.0222 8.17184 11.0669 8.15168C11.1116 8.13152 11.1604 8.12214 11.2094 8.12432C11.2567 8.11725 11.3049 8.12027 11.3509 8.13319C11.3969 8.14611 11.4397 8.16863 11.4763 8.19926C11.513 8.2299 11.5428 8.26796 11.5636 8.31094C11.5845 8.35391 11.5961 8.40082 11.5975 8.44858C11.5989 8.49634 11.5902 8.54386 11.572 8.58802C11.5537 8.63217 11.5263 8.67195 11.4915 8.70473C11.4568 8.73752 11.4155 8.76257 11.3703 8.77822C11.3252 8.79388 11.2772 8.7998 11.2296 8.79558H11.2094ZM16.9429 6.98369C16.9429 7.02787 16.9341 7.0716 16.917 7.11234C16.9 7.15309 16.875 7.19004 16.8435 7.22104C16.8121 7.25204 16.7747 7.27647 16.7337 7.29291C16.6927 7.30935 16.6489 7.31747 16.6047 7.3168H12.2946C12.2504 7.31747 12.2065 7.30935 12.1655 7.29291C12.1245 7.27647 12.0872 7.25204 12.0557 7.22104C12.0243 7.19004 11.9993 7.15309 11.9822 7.11234C11.9652 7.0716 11.9564 7.02787 11.9564 6.98369V5.46959C11.9564 5.42518 11.9652 5.38121 11.9821 5.34018C11.9991 5.29915 12.024 5.26188 12.0554 5.23048C12.0868 5.19908 12.1241 5.17417 12.1652 5.15718C12.2062 5.14018 12.2502 5.13144 12.2946 5.13144H16.6249C16.7146 5.13144 16.8006 5.16706 16.864 5.23048C16.9274 5.29389 16.9631 5.3799 16.9631 5.46959L16.9429 6.98369ZM15.0099 10.7639C14.6226 10.7639 14.2439 10.8788 13.9219 11.0939C13.5999 11.3091 13.3489 11.615 13.2007 11.9728C13.0525 12.3306 13.0137 12.7243 13.0892 13.1042C13.1648 13.4841 13.3513 13.833 13.6252 14.1069C13.899 14.3807 14.248 14.5672 14.6278 14.6428C15.0077 14.7183 15.4014 14.6796 15.7592 14.5313C16.1171 14.3831 16.4229 14.1321 16.6381 13.8101C16.8533 13.4881 16.9681 13.1095 16.9681 12.7222C16.9681 12.2063 16.7646 11.7112 16.4017 11.3446C16.0388 10.9779 15.5459 10.7692 15.03 10.7639H15.0099ZM15.0099 13.6761C14.82 13.6761 14.6344 13.6197 14.4766 13.5141C14.3188 13.4085 14.1959 13.2584 14.1234 13.0829C14.051 12.9074 14.0323 12.7143 14.0697 12.5282C14.1071 12.342 14.199 12.1712 14.3336 12.0373C14.4682 11.9034 14.6395 11.8124 14.8259 11.776C15.0122 11.7396 15.2052 11.7593 15.3803 11.8326C15.5555 11.906 15.7049 12.0297 15.8096 12.188C15.9144 12.3464 15.9698 12.5323 15.9688 12.7222C15.9688 12.9725 15.8704 13.2129 15.6948 13.3914C15.5192 13.5698 15.2804 13.6721 15.03 13.6761H15.0099Z" fill="white"/>
<path d="M20.6914 4.33991V0.00451751H22.0995C22.4474 -0.010385 22.7959 0.0116081 23.1392 0.0701288C23.3857 0.145005 23.6004 0.299408 23.7499 0.50922C23.9242 0.754665 24.0112 1.05139 23.9972 1.35207C24.0055 1.584 23.957 1.81444 23.8559 2.02333C23.768 2.19297 23.6419 2.33984 23.4875 2.45233C23.3497 2.54799 23.1958 2.61808 23.0332 2.65925C22.7328 2.7061 22.4288 2.72637 22.1248 2.71982H21.5544V4.33991H20.6914ZM21.5696 0.736336V1.96781H22.0491C22.2715 1.97825 22.4942 1.95615 22.7102 1.9022C22.822 1.86098 22.9176 1.78489 22.9828 1.68518C23.05 1.58723 23.0852 1.47087 23.0837 1.35207C23.0872 1.20785 23.0368 1.0675 22.9424 0.958405C22.8504 0.855462 22.7255 0.787669 22.5891 0.766618C22.3816 0.740329 22.1723 0.730205 21.9633 0.736336H21.5696Z" fill="white"/>
</svg>
